solid OpenSCAD_Model
  facet normal -1 0 0
    outer loop
      vertex -7.85 -7.85 -2
      vertex -7.85 7.85 2
      vertex -7.85 7.85 -2
    endloop
  endfacet
  facet normal -1 -0 0
    outer loop
      vertex -7.85 7.85 2
      vertex -7.85 -7.85 -2
      vertex -7.85 -7.85 2
    endloop
  endfacet
  facet normal 0 0 1
    outer loop
      vertex 7.85 7.85 2
      vertex 5.85 0 2
      vertex 7.85 -7.85 2
    endloop
  endfacet
  facet normal 0 0 1
    outer loop
      vertex 7.85 7.85 2
      vertex 2.925 5.06625 2
      vertex 5.85 0 2
    endloop
  endfacet
  facet normal 0 0 1
    outer loop
      vertex 7.85 7.85 2
      vertex -2.925 5.06625 2
      vertex 2.925 5.06625 2
    endloop
  endfacet
  facet normal 0 0 1
    outer loop
      vertex -2.925 5.06625 2
      vertex -7.85 7.85 2
      vertex -5.85 0 2
    endloop
  endfacet
  facet normal -0 0 1
    outer loop
      vertex -7.85 7.85 2
      vertex -2.925 5.06625 2
      vertex 7.85 7.85 2
    endloop
  endfacet
  facet normal -0 0 1
    outer loop
      vertex 2.925 -5.06625 2
      vertex 7.85 -7.85 2
      vertex 5.85 0 2
    endloop
  endfacet
  facet normal -0 0 1
    outer loop
      vertex -2.925 -5.06625 2
      vertex 7.85 -7.85 2
      vertex 2.925 -5.06625 2
    endloop
  endfacet
  facet normal 0 0 1
    outer loop
      vertex -2.925 -5.06625 2
      vertex -7.85 -7.85 2
      vertex 7.85 -7.85 2
    endloop
  endfacet
  facet normal 0 0 1
    outer loop
      vertex -5.85 0 2
      vertex -7.85 -7.85 2
      vertex -2.925 -5.06625 2
    endloop
  endfacet
  facet normal 0 0 1
    outer loop
      vertex -7.85 -7.85 2
      vertex -5.85 0 2
      vertex -7.85 7.85 2
    endloop
  endfacet
  facet normal 1 -0 0
    outer loop
      vertex 7.85 -7.85 2
      vertex 7.85 7.85 -2
      vertex 7.85 7.85 2
    endloop
  endfacet
  facet normal 1 0 0
    outer loop
      vertex 7.85 7.85 -2
      vertex 7.85 -7.85 2
      vertex 7.85 -7.85 -2
    endloop
  endfacet
  facet normal 0 1 -0
    outer loop
      vertex 7.85 7.85 -2
      vertex -7.85 7.85 2
      vertex 7.85 7.85 2
    endloop
  endfacet
  facet normal 0 1 0
    outer loop
      vertex -7.85 7.85 2
      vertex 7.85 7.85 -2
      vertex -7.85 7.85 -2
    endloop
  endfacet
  facet normal 0 0 -1
    outer loop
      vertex 7.85 -7.85 -2
      vertex 5.85 0 -2
      vertex 7.85 7.85 -2
    endloop
  endfacet
  facet normal 0 0 -1
    outer loop
      vertex 7.85 -7.85 -2
      vertex 2.925 -5.06625 -2
      vertex 5.85 0 -2
    endloop
  endfacet
  facet normal 0 0 -1
    outer loop
      vertex 7.85 -7.85 -2
      vertex -2.925 -5.06625 -2
      vertex 2.925 -5.06625 -2
    endloop
  endfacet
  facet normal -0 0 -1
    outer loop
      vertex -2.925 -5.06625 -2
      vertex -7.85 -7.85 -2
      vertex -5.85 0 -2
    endloop
  endfacet
  facet normal 0 0 -1
    outer loop
      vertex -7.85 -7.85 -2
      vertex -2.925 -5.06625 -2
      vertex 7.85 -7.85 -2
    endloop
  endfacet
  facet normal 0 0 -1
    outer loop
      vertex 2.925 5.06625 -2
      vertex 7.85 7.85 -2
      vertex 5.85 0 -2
    endloop
  endfacet
  facet normal 0 0 -1
    outer loop
      vertex -2.925 5.06625 -2
      vertex 7.85 7.85 -2
      vertex 2.925 5.06625 -2
    endloop
  endfacet
  facet normal 0 0 -1
    outer loop
      vertex -2.925 5.06625 -2
      vertex -7.85 7.85 -2
      vertex 7.85 7.85 -2
    endloop
  endfacet
  facet normal 0 0 -1
    outer loop
      vertex -5.85 0 -2
      vertex -7.85 7.85 -2
      vertex -2.925 5.06625 -2
    endloop
  endfacet
  facet normal 0 0 -1
    outer loop
      vertex -7.85 7.85 -2
      vertex -5.85 0 -2
      vertex -7.85 -7.85 -2
    endloop
  endfacet
  facet normal 0 -1 0
    outer loop
      vertex -7.85 -7.85 -2
      vertex 7.85 -7.85 2
      vertex -7.85 -7.85 2
    endloop
  endfacet
  facet normal 0 -1 -0
    outer loop
      vertex 7.85 -7.85 2
      vertex -7.85 -7.85 -2
      vertex 7.85 -7.85 -2
    endloop
  endfacet
  facet normal -0.866025 -0.5 0
    outer loop
      vertex 5.85 0 -2
      vertex 2.925 5.06625 2
      vertex 2.925 5.06625 -2
    endloop
  endfacet
  facet normal -0.866025 -0.5 0
    outer loop
      vertex 2.925 5.06625 2
      vertex 5.85 0 -2
      vertex 5.85 0 2
    endloop
  endfacet
  facet normal 0.866025 -0.5 0
    outer loop
      vertex -5.85 0 2
      vertex -2.925 5.06625 -2
      vertex -2.925 5.06625 2
    endloop
  endfacet
  facet normal 0.866025 -0.5 0
    outer loop
      vertex -2.925 5.06625 -2
      vertex -5.85 0 2
      vertex -5.85 0 -2
    endloop
  endfacet
  facet normal 0 -1 0
    outer loop
      vertex -2.925 5.06625 -2
      vertex 2.925 5.06625 2
      vertex -2.925 5.06625 2
    endloop
  endfacet
  facet normal 0 -1 -0
    outer loop
      vertex 2.925 5.06625 2
      vertex -2.925 5.06625 -2
      vertex 2.925 5.06625 -2
    endloop
  endfacet
  facet normal 0.866025 0.5 0
    outer loop
      vertex -2.925 -5.06625 2
      vertex -5.85 0 -2
      vertex -5.85 0 2
    endloop
  endfacet
  facet normal 0.866025 0.5 0
    outer loop
      vertex -5.85 0 -2
      vertex -2.925 -5.06625 2
      vertex -2.925 -5.06625 -2
    endloop
  endfacet
  facet normal 0 1 -0
    outer loop
      vertex 2.925 -5.06625 -2
      vertex -2.925 -5.06625 2
      vertex 2.925 -5.06625 2
    endloop
  endfacet
  facet normal 0 1 0
    outer loop
      vertex -2.925 -5.06625 2
      vertex 2.925 -5.06625 -2
      vertex -2.925 -5.06625 -2
    endloop
  endfacet
  facet normal -0.866025 0.5 0
    outer loop
      vertex 2.925 -5.06625 -2
      vertex 5.85 0 2
      vertex 5.85 0 -2
    endloop
  endfacet
  facet normal -0.866025 0.5 0
    outer loop
      vertex 5.85 0 2
      vertex 2.925 -5.06625 -2
      vertex 2.925 -5.06625 2
    endloop
  endfacet
endsolid OpenSCAD_Model
