solid OpenSCAD_Model
  facet normal -0.928123 0.337809 -0.156436
    outer loop
      vertex 1.40954 6.48697 41.2
      vertex 0.14348 3.22316 41.6635
      vertex 1.34055 6.51208 41.6635
    endloop
  endfacet
  facet normal -0.928123 0.337809 -0.156436
    outer loop
      vertex 0.14348 3.22316 41.6635
      vertex 1.40954 6.48697 41.2
      vertex 0.212468 3.19805 41.2
    endloop
  endfacet
  facet normal -0.42661 0.155273 -0.891007
    outer loop
      vertex -0.368565 3.40952 42.4135
      vertex 0.435571 6.84146 42.6266
      vertex 0.828506 6.69845 42.4135
    endloop
  endfacet
  facet normal -0.42661 0.155273 -0.891007
    outer loop
      vertex 0.435571 6.84146 42.6266
      vertex -0.368565 3.40952 42.4135
      vertex -0.7615 3.55254 42.6266
    endloop
  endfacet
  facet normal 0.426616 -0.155276 0.891004
    outer loop
      vertex -0.828506 7.30155 39.9865
      vertex -1.63264 3.86961 39.7734
      vertex -0.435571 7.15854 39.7734
    endloop
  endfacet
  facet normal 0.426616 -0.155276 0.891004
    outer loop
      vertex -1.63264 3.86961 39.7734
      vertex -0.828506 7.30155 39.9865
      vertex -2.02558 4.01263 39.9865
    endloop
  endfacet
  facet normal -0.664464 0.241845 -0.707106
    outer loop
      vertex -0.0567302 3.29603 42.0817
      vertex 0.828506 6.69845 42.4135
      vertex 1.14034 6.58495 42.0817
    endloop
  endfacet
  facet normal -0.664464 0.241845 -0.707106
    outer loop
      vertex 0.828506 6.69845 42.4135
      vertex -0.0567302 3.29603 42.0817
      vertex -0.368565 3.40952 42.4135
    endloop
  endfacet
  facet normal -0.837272 0.304742 -0.453991
    outer loop
      vertex 1.34055 6.51208 41.6635
      vertex -0.0567302 3.29603 42.0817
      vertex 1.14034 6.58495 42.0817
    endloop
  endfacet
  facet normal -0.837272 0.304742 -0.453991
    outer loop
      vertex -0.0567302 3.29603 42.0817
      vertex 1.34055 6.51208 41.6635
      vertex 0.14348 3.22316 41.6635
    endloop
  endfacet
  facet normal -0.147005 0.0535055 -0.987688
    outer loop
      vertex -0.7615 3.55254 42.6266
      vertex 1.13916e-016 7 42.7
      vertex 0.435571 6.84146 42.6266
    endloop
  endfacet
  facet normal -0.147005 0.0535055 -0.987688
    outer loop
      vertex 1.13916e-016 7 42.7
      vertex -0.7615 3.55254 42.6266
      vertex -1.19707 3.71108 42.7
    endloop
  endfacet
  facet normal 0.147005 -0.0535055 -0.987688
    outer loop
      vertex -1.19707 3.71108 42.7
      vertex -0.435571 7.15854 42.6266
      vertex 1.13916e-016 7 42.7
    endloop
  endfacet
  facet normal 0.147005 -0.0535055 -0.987688
    outer loop
      vertex -0.435571 7.15854 42.6266
      vertex -1.19707 3.71108 42.7
      vertex -1.63264 3.86961 42.6266
    endloop
  endfacet
  facet normal 0.42661 -0.155273 -0.891007
    outer loop
      vertex -1.63264 3.86961 42.6266
      vertex -0.828506 7.30155 42.4135
      vertex -0.435571 7.15854 42.6266
    endloop
  endfacet
  facet normal 0.42661 -0.155273 -0.891007
    outer loop
      vertex -0.828506 7.30155 42.4135
      vertex -1.63264 3.86961 42.6266
      vertex -2.02558 4.01263 42.4135
    endloop
  endfacet
  facet normal -0.66446 0.241844 0.70711
    outer loop
      vertex 0.828506 6.69845 39.9865
      vertex -0.0567302 3.29603 40.3183
      vertex 1.14034 6.58495 40.3183
    endloop
  endfacet
  facet normal -0.66446 0.241844 0.70711
    outer loop
      vertex -0.0567302 3.29603 40.3183
      vertex 0.828506 6.69845 39.9865
      vertex -0.368565 3.40952 39.9865
    endloop
  endfacet
  facet normal 0.928123 -0.337809 0.156436
    outer loop
      vertex -2.60661 4.22411 41.2
      vertex -1.34055 7.48792 40.7365
      vertex -1.40954 7.51303 41.2
    endloop
  endfacet
  facet normal 0.928123 -0.337809 0.156436
    outer loop
      vertex -1.34055 7.48792 40.7365
      vertex -2.60661 4.22411 41.2
      vertex -2.53762 4.199 40.7365
    endloop
  endfacet
  facet normal 0.66446 -0.241844 0.70711
    outer loop
      vertex -1.14034 7.41505 40.3183
      vertex -2.02558 4.01263 39.9865
      vertex -0.828506 7.30155 39.9865
    endloop
  endfacet
  facet normal 0.66446 -0.241844 0.70711
    outer loop
      vertex -2.02558 4.01263 39.9865
      vertex -1.14034 7.41505 40.3183
      vertex -2.33741 4.12613 40.3183
    endloop
  endfacet
  facet normal 0.928123 -0.337809 -0.156436
    outer loop
      vertex -1.34055 7.48792 41.6635
      vertex -2.60661 4.22411 41.2
      vertex -1.40954 7.51303 41.2
    endloop
  endfacet
  facet normal 0.928123 -0.337809 -0.156436
    outer loop
      vertex -2.60661 4.22411 41.2
      vertex -1.34055 7.48792 41.6635
      vertex -2.53762 4.199 41.6635
    endloop
  endfacet
  facet normal 0.664464 -0.241845 -0.707106
    outer loop
      vertex -2.02558 4.01263 42.4135
      vertex -1.14034 7.41505 42.0817
      vertex -0.828506 7.30155 42.4135
    endloop
  endfacet
  facet normal 0.664464 -0.241845 -0.707106
    outer loop
      vertex -1.14034 7.41505 42.0817
      vertex -2.02558 4.01263 42.4135
      vertex -2.33741 4.12613 42.0817
    endloop
  endfacet
  facet normal -0.837273 0.304743 0.453988
    outer loop
      vertex -0.0567302 3.29603 40.3183
      vertex 1.34055 6.51208 40.7365
      vertex 1.14034 6.58495 40.3183
    endloop
  endfacet
  facet normal -0.837273 0.304743 0.453988
    outer loop
      vertex 1.34055 6.51208 40.7365
      vertex -0.0567302 3.29603 40.3183
      vertex 0.14348 3.22316 40.7365
    endloop
  endfacet
  facet normal -0.146998 0.0535028 0.987689
    outer loop
      vertex -1.13916e-016 7 39.7
      vertex -0.7615 3.55254 39.7734
      vertex 0.435571 6.84146 39.7734
    endloop
  endfacet
  facet normal -0.146998 0.0535028 0.987689
    outer loop
      vertex -0.7615 3.55254 39.7734
      vertex -1.13916e-016 7 39.7
      vertex -1.19707 3.71108 39.7
    endloop
  endfacet
  facet normal -0.426616 0.155276 0.891004
    outer loop
      vertex 0.435571 6.84146 39.7734
      vertex -0.368565 3.40952 39.9865
      vertex 0.828506 6.69845 39.9865
    endloop
  endfacet
  facet normal -0.426616 0.155276 0.891004
    outer loop
      vertex -0.368565 3.40952 39.9865
      vertex 0.435571 6.84146 39.7734
      vertex -0.7615 3.55254 39.7734
    endloop
  endfacet
  facet normal 0.146998 -0.0535028 0.987689
    outer loop
      vertex -0.435571 7.15854 39.7734
      vertex -1.19707 3.71108 39.7
      vertex -1.13916e-016 7 39.7
    endloop
  endfacet
  facet normal 0.146998 -0.0535028 0.987689
    outer loop
      vertex -1.19707 3.71108 39.7
      vertex -0.435571 7.15854 39.7734
      vertex -1.63264 3.86961 39.7734
    endloop
  endfacet
  facet normal 0.837273 -0.304743 0.453988
    outer loop
      vertex -2.53762 4.199 40.7365
      vertex -1.14034 7.41505 40.3183
      vertex -1.34055 7.48792 40.7365
    endloop
  endfacet
  facet normal 0.837273 -0.304743 0.453988
    outer loop
      vertex -1.14034 7.41505 40.3183
      vertex -2.53762 4.199 40.7365
      vertex -2.33741 4.12613 40.3183
    endloop
  endfacet
  facet normal 0.837272 -0.304742 -0.453991
    outer loop
      vertex -1.14034 7.41505 42.0817
      vertex -2.53762 4.199 41.6635
      vertex -1.34055 7.48792 41.6635
    endloop
  endfacet
  facet normal 0.837272 -0.304742 -0.453991
    outer loop
      vertex -2.53762 4.199 41.6635
      vertex -1.14034 7.41505 42.0817
      vertex -2.33741 4.12613 42.0817
    endloop
  endfacet
  facet normal -0.928123 0.337809 0.156436
    outer loop
      vertex 0.14348 3.22316 40.7365
      vertex 1.40954 6.48697 41.2
      vertex 1.34055 6.51208 40.7365
    endloop
  endfacet
  facet normal -0.928123 0.337809 0.156436
    outer loop
      vertex 1.40954 6.48697 41.2
      vertex 0.14348 3.22316 40.7365
      vertex 0.212468 3.19805 41.2
    endloop
  endfacet
  facet normal -0.813798 0.296198 -0.5
    outer loop
      vertex 4.27456 9.16881 41.2
      vertex 1.53875 6.43994 44.0362
      vertex 2.73582 9.72887 44.0362
    endloop
  endfacet
  facet normal -0.813798 0.296198 -0.5
    outer loop
      vertex 1.53875 6.43994 44.0362
      vertex 4.27456 9.16881 41.2
      vertex 3.07749 5.87988 41.2
    endloop
  endfacet
  facet normal 0.813798 -0.296198 -0.5
    outer loop
      vertex -0.341676 10.849 44.0362
      vertex -3.07749 8.12012 41.2
      vertex -1.88042 11.409 41.2
    endloop
  endfacet
  facet normal 0.813798 -0.296198 -0.5
    outer loop
      vertex -3.07749 8.12012 41.2
      vertex -0.341676 10.849 44.0362
      vertex -1.53875 7.56006 44.0362
    endloop
  endfacet
  facet normal 0 0 -1
    outer loop
      vertex 1.53875 6.43994 44.0362
      vertex -0.341676 10.849 44.0362
      vertex 2.73582 9.72887 44.0362
    endloop
  endfacet
  facet normal 0 -0 -1
    outer loop
      vertex -0.341676 10.849 44.0362
      vertex 1.53875 6.43994 44.0362
      vertex -1.53875 7.56006 44.0362
    endloop
  endfacet
  facet normal 0.34202 0.939693 5.07396e-017
    outer loop
      vertex 1.53875 6.43994 44.0362
      vertex 1.13916e-016 7 42.7
      vertex -1.53875 7.56006 44.0362
    endloop
  endfacet
  facet normal 0.34202 0.939693 -2.42448e-007
    outer loop
      vertex 1.53875 6.43994 44.0362
      vertex 0.435571 6.84146 42.6266
      vertex 1.13916e-016 7 42.7
    endloop
  endfacet
  facet normal 0.34202 0.939693 4.46933e-007
    outer loop
      vertex 1.53875 6.43994 44.0362
      vertex 0.828506 6.69845 42.4135
      vertex 0.435571 6.84146 42.6266
    endloop
  endfacet
  facet normal 0.342021 0.939692 -8.3444e-008
    outer loop
      vertex 1.53875 6.43994 44.0362
      vertex 1.14034 6.58495 42.0817
      vertex 0.828506 6.69845 42.4135
    endloop
  endfacet
  facet normal 0.34202 0.939693 6.27096e-008
    outer loop
      vertex 3.07749 5.87988 41.2
      vertex 1.14034 6.58495 42.0817
      vertex 1.53875 6.43994 44.0362
    endloop
  endfacet
  facet normal 0.34202 0.939693 -4.22035e-007
    outer loop
      vertex 1.14034 6.58495 42.0817
      vertex 3.07749 5.87988 41.2
      vertex 1.34055 6.51208 41.6635
    endloop
  endfacet
  facet normal 0.34202 0.939693 8.30301e-007
    outer loop
      vertex 3.07749 5.87988 41.2
      vertex 1.40954 6.48697 41.2
      vertex 1.34055 6.51208 41.6635
    endloop
  endfacet
  facet normal 0.34202 0.939693 -8.30301e-007
    outer loop
      vertex 3.07749 5.87988 41.2
      vertex 1.34055 6.51208 40.7365
      vertex 1.40954 6.48697 41.2
    endloop
  endfacet
  facet normal 0.34202 0.939693 4.22031e-007
    outer loop
      vertex 3.07749 5.87988 41.2
      vertex 1.14034 6.58495 40.3183
      vertex 1.34055 6.51208 40.7365
    endloop
  endfacet
  facet normal 0.34202 0.939693 -6.27096e-008
    outer loop
      vertex 1.53875 6.43994 38.3638
      vertex 1.14034 6.58495 40.3183
      vertex 3.07749 5.87988 41.2
    endloop
  endfacet
  facet normal 0.342021 0.939692 8.34441e-008
    outer loop
      vertex 1.14034 6.58495 40.3183
      vertex 1.53875 6.43994 38.3638
      vertex 0.828506 6.69845 39.9865
    endloop
  endfacet
  facet normal 0.34202 0.939693 2.4245e-007
    outer loop
      vertex 0.435571 6.84146 39.7734
      vertex 1.53875 6.43994 38.3638
      vertex -1.13916e-016 7 39.7
    endloop
  endfacet
  facet normal 0.34202 0.939693 -4.4693e-007
    outer loop
      vertex 0.828506 6.69845 39.9865
      vertex 1.53875 6.43994 38.3638
      vertex 0.435571 6.84146 39.7734
    endloop
  endfacet
  facet normal 0.34202 0.939693 2.42448e-007
    outer loop
      vertex -0.435571 7.15854 42.6266
      vertex -1.53875 7.56006 44.0362
      vertex 1.13916e-016 7 42.7
    endloop
  endfacet
  facet normal 0.34202 0.939693 -4.46933e-007
    outer loop
      vertex -0.828506 7.30155 42.4135
      vertex -1.53875 7.56006 44.0362
      vertex -0.435571 7.15854 42.6266
    endloop
  endfacet
  facet normal 0.342021 0.939692 8.3444e-008
    outer loop
      vertex -1.14034 7.41505 42.0817
      vertex -1.53875 7.56006 44.0362
      vertex -0.828506 7.30155 42.4135
    endloop
  endfacet
  facet normal 0.34202 0.939693 2.80425e-007
    outer loop
      vertex -3.07749 8.12012 41.2
      vertex -1.14034 7.41505 42.0817
      vertex -1.34055 7.48792 41.6635
    endloop
  endfacet
  facet normal 0.34202 0.939693 -8.70284e-007
    outer loop
      vertex -3.07749 8.12012 41.2
      vertex -1.34055 7.48792 41.6635
      vertex -1.40954 7.51303 41.2
    endloop
  endfacet
  facet normal 0.34202 0.939693 -1.95636e-008
    outer loop
      vertex -1.14034 7.41505 42.0817
      vertex -3.07749 8.12012 41.2
      vertex -1.53875 7.56006 44.0362
    endloop
  endfacet
  facet normal 0.34202 0.939693 8.70284e-007
    outer loop
      vertex -1.34055 7.48792 40.7365
      vertex -3.07749 8.12012 41.2
      vertex -1.40954 7.51303 41.2
    endloop
  endfacet
  facet normal 0.34202 0.939693 -2.80422e-007
    outer loop
      vertex -1.14034 7.41505 40.3183
      vertex -3.07749 8.12012 41.2
      vertex -1.34055 7.48792 40.7365
    endloop
  endfacet
  facet normal 0.342021 0.939692 -8.34441e-008
    outer loop
      vertex -1.53875 7.56006 38.3638
      vertex -1.14034 7.41505 40.3183
      vertex -0.828506 7.30155 39.9865
    endloop
  endfacet
  facet normal 0.34202 0.939693 4.4693e-007
    outer loop
      vertex -1.53875 7.56006 38.3638
      vertex -0.828506 7.30155 39.9865
      vertex -0.435571 7.15854 39.7734
    endloop
  endfacet
  facet normal 0.34202 0.939693 5.07395e-017
    outer loop
      vertex -1.53875 7.56006 38.3638
      vertex -1.13916e-016 7 39.7
      vertex 1.53875 6.43994 38.3638
    endloop
  endfacet
  facet normal 0.34202 0.939693 -2.4245e-007
    outer loop
      vertex -1.13916e-016 7 39.7
      vertex -1.53875 7.56006 38.3638
      vertex -0.435571 7.15854 39.7734
    endloop
  endfacet
  facet normal 0.34202 0.939693 1.95636e-008
    outer loop
      vertex -1.14034 7.41505 40.3183
      vertex -1.53875 7.56006 38.3638
      vertex -3.07749 8.12012 41.2
    endloop
  endfacet
  facet normal 0 0 1
    outer loop
      vertex -0.341676 10.849 38.3638
      vertex 1.53875 6.43994 38.3638
      vertex 2.73582 9.72887 38.3638
    endloop
  endfacet
  facet normal 0 0 1
    outer loop
      vertex 1.53875 6.43994 38.3638
      vertex -0.341676 10.849 38.3638
      vertex -1.53875 7.56006 38.3638
    endloop
  endfacet
  facet normal 0.813798 -0.296198 0.5
    outer loop
      vertex -3.07749 8.12012 41.2
      vertex -0.341676 10.849 38.3638
      vertex -1.88042 11.409 41.2
    endloop
  endfacet
  facet normal 0.813798 -0.296198 0.5
    outer loop
      vertex -0.341676 10.849 38.3638
      vertex -3.07749 8.12012 41.2
      vertex -1.53875 7.56006 38.3638
    endloop
  endfacet
  facet normal -0.813798 0.296198 0.5
    outer loop
      vertex 1.53875 6.43994 38.3638
      vertex 4.27456 9.16881 41.2
      vertex 2.73582 9.72887 38.3638
    endloop
  endfacet
  facet normal -0.813798 0.296198 0.5
    outer loop
      vertex 4.27456 9.16881 41.2
      vertex 1.53875 6.43994 38.3638
      vertex 3.07749 5.87988 41.2
    endloop
  endfacet
  facet normal -0.928123 0.337809 -0.156436
    outer loop
      vertex 1.40954 6.48697 25.2
      vertex 0.14348 3.22316 25.6635
      vertex 1.34055 6.51208 25.6635
    endloop
  endfacet
  facet normal -0.928123 0.337809 -0.156436
    outer loop
      vertex 0.14348 3.22316 25.6635
      vertex 1.40954 6.48697 25.2
      vertex 0.212468 3.19805 25.2
    endloop
  endfacet
  facet normal -0.426613 0.155274 -0.891006
    outer loop
      vertex -0.368565 3.40952 26.4135
      vertex 0.435571 6.84146 26.6266
      vertex 0.828506 6.69845 26.4135
    endloop
  endfacet
  facet normal -0.426613 0.155274 -0.891006
    outer loop
      vertex 0.435571 6.84146 26.6266
      vertex -0.368565 3.40952 26.4135
      vertex -0.7615 3.55254 26.6266
    endloop
  endfacet
  facet normal 0.42661 -0.155273 0.891007
    outer loop
      vertex -0.828506 7.30155 23.9865
      vertex -1.63264 3.86961 23.7734
      vertex -0.435571 7.15854 23.7734
    endloop
  endfacet
  facet normal 0.42661 -0.155273 0.891007
    outer loop
      vertex -1.63264 3.86961 23.7734
      vertex -0.828506 7.30155 23.9865
      vertex -2.02558 4.01263 23.9865
    endloop
  endfacet
  facet normal -0.664462 0.241844 -0.707108
    outer loop
      vertex -0.0567302 3.29603 26.0817
      vertex 0.828506 6.69845 26.4135
      vertex 1.14034 6.58495 26.0817
    endloop
  endfacet
  facet normal -0.664462 0.241844 -0.707108
    outer loop
      vertex 0.828506 6.69845 26.4135
      vertex -0.0567302 3.29603 26.0817
      vertex -0.368565 3.40952 26.4135
    endloop
  endfacet
  facet normal -0.837273 0.304742 -0.45399
    outer loop
      vertex 1.34055 6.51208 25.6635
      vertex -0.0567302 3.29603 26.0817
      vertex 1.14034 6.58495 26.0817
    endloop
  endfacet
  facet normal -0.837273 0.304742 -0.45399
    outer loop
      vertex -0.0567302 3.29603 26.0817
      vertex 1.34055 6.51208 25.6635
      vertex 0.14348 3.22316 25.6635
    endloop
  endfacet
  facet normal -0.147002 0.0535042 -0.987688
    outer loop
      vertex -0.7615 3.55254 26.6266
      vertex 1.13916e-016 7 26.7
      vertex 0.435571 6.84146 26.6266
    endloop
  endfacet
  facet normal -0.147002 0.0535042 -0.987688
    outer loop
      vertex 1.13916e-016 7 26.7
      vertex -0.7615 3.55254 26.6266
      vertex -1.19707 3.71108 26.7
    endloop
  endfacet
  facet normal 0.147002 -0.0535042 -0.987688
    outer loop
      vertex -1.19707 3.71108 26.7
      vertex -0.435571 7.15854 26.6266
      vertex 1.13916e-016 7 26.7
    endloop
  endfacet
  facet normal 0.147002 -0.0535042 -0.987688
    outer loop
      vertex -0.435571 7.15854 26.6266
      vertex -1.19707 3.71108 26.7
      vertex -1.63264 3.86961 26.6266
    endloop
  endfacet
  facet normal 0.426613 -0.155274 -0.891006
    outer loop
      vertex -1.63264 3.86961 26.6266
      vertex -0.828506 7.30155 26.4135
      vertex -0.435571 7.15854 26.6266
    endloop
  endfacet
  facet normal 0.426613 -0.155274 -0.891006
    outer loop
      vertex -0.828506 7.30155 26.4135
      vertex -1.63264 3.86961 26.6266
      vertex -2.02558 4.01263 26.4135
    endloop
  endfacet
  facet normal -0.664464 0.241845 0.707106
    outer loop
      vertex 0.828506 6.69845 23.9865
      vertex -0.0567302 3.29603 24.3183
      vertex 1.14034 6.58495 24.3183
    endloop
  endfacet
  facet normal -0.664464 0.241845 0.707106
    outer loop
      vertex -0.0567302 3.29603 24.3183
      vertex 0.828506 6.69845 23.9865
      vertex -0.368565 3.40952 23.9865
    endloop
  endfacet
  facet normal 0.928123 -0.337809 0.156435
    outer loop
      vertex -2.60661 4.22411 25.2
      vertex -1.34055 7.48792 24.7365
      vertex -1.40954 7.51303 25.2
    endloop
  endfacet
  facet normal 0.928123 -0.337809 0.156435
    outer loop
      vertex -1.34055 7.48792 24.7365
      vertex -2.60661 4.22411 25.2
      vertex -2.53762 4.199 24.7365
    endloop
  endfacet
  facet normal 0.664464 -0.241845 0.707106
    outer loop
      vertex -1.14034 7.41505 24.3183
      vertex -2.02558 4.01263 23.9865
      vertex -0.828506 7.30155 23.9865
    endloop
  endfacet
  facet normal 0.664464 -0.241845 0.707106
    outer loop
      vertex -2.02558 4.01263 23.9865
      vertex -1.14034 7.41505 24.3183
      vertex -2.33741 4.12613 24.3183
    endloop
  endfacet
  facet normal 0.928123 -0.337809 -0.156436
    outer loop
      vertex -1.34055 7.48792 25.6635
      vertex -2.60661 4.22411 25.2
      vertex -1.40954 7.51303 25.2
    endloop
  endfacet
  facet normal 0.928123 -0.337809 -0.156436
    outer loop
      vertex -2.60661 4.22411 25.2
      vertex -1.34055 7.48792 25.6635
      vertex -2.53762 4.199 25.6635
    endloop
  endfacet
  facet normal 0.664462 -0.241844 -0.707108
    outer loop
      vertex -2.02558 4.01263 26.4135
      vertex -1.14034 7.41505 26.0817
      vertex -0.828506 7.30155 26.4135
    endloop
  endfacet
  facet normal 0.664462 -0.241844 -0.707108
    outer loop
      vertex -1.14034 7.41505 26.0817
      vertex -2.02558 4.01263 26.4135
      vertex -2.33741 4.12613 26.0817
    endloop
  endfacet
  facet normal -0.837272 0.304742 0.453991
    outer loop
      vertex -0.0567302 3.29603 24.3183
      vertex 1.34055 6.51208 24.7365
      vertex 1.14034 6.58495 24.3183
    endloop
  endfacet
  facet normal -0.837272 0.304742 0.453991
    outer loop
      vertex 1.34055 6.51208 24.7365
      vertex -0.0567302 3.29603 24.3183
      vertex 0.14348 3.22316 24.7365
    endloop
  endfacet
  facet normal -0.147002 0.0535042 0.987688
    outer loop
      vertex -1.13916e-016 7 23.7
      vertex -0.7615 3.55254 23.7734
      vertex 0.435571 6.84146 23.7734
    endloop
  endfacet
  facet normal -0.147002 0.0535042 0.987688
    outer loop
      vertex -0.7615 3.55254 23.7734
      vertex -1.13916e-016 7 23.7
      vertex -1.19707 3.71108 23.7
    endloop
  endfacet
  facet normal -0.42661 0.155273 0.891007
    outer loop
      vertex 0.435571 6.84146 23.7734
      vertex -0.368565 3.40952 23.9865
      vertex 0.828506 6.69845 23.9865
    endloop
  endfacet
  facet normal -0.42661 0.155273 0.891007
    outer loop
      vertex -0.368565 3.40952 23.9865
      vertex 0.435571 6.84146 23.7734
      vertex -0.7615 3.55254 23.7734
    endloop
  endfacet
  facet normal 0.147002 -0.0535042 0.987688
    outer loop
      vertex -0.435571 7.15854 23.7734
      vertex -1.19707 3.71108 23.7
      vertex -1.13916e-016 7 23.7
    endloop
  endfacet
  facet normal 0.147002 -0.0535042 0.987688
    outer loop
      vertex -1.19707 3.71108 23.7
      vertex -0.435571 7.15854 23.7734
      vertex -1.63264 3.86961 23.7734
    endloop
  endfacet
  facet normal 0.837272 -0.304742 0.453991
    outer loop
      vertex -2.53762 4.199 24.7365
      vertex -1.14034 7.41505 24.3183
      vertex -1.34055 7.48792 24.7365
    endloop
  endfacet
  facet normal 0.837272 -0.304742 0.453991
    outer loop
      vertex -1.14034 7.41505 24.3183
      vertex -2.53762 4.199 24.7365
      vertex -2.33741 4.12613 24.3183
    endloop
  endfacet
  facet normal 0.837273 -0.304742 -0.45399
    outer loop
      vertex -1.14034 7.41505 26.0817
      vertex -2.53762 4.199 25.6635
      vertex -1.34055 7.48792 25.6635
    endloop
  endfacet
  facet normal 0.837273 -0.304742 -0.45399
    outer loop
      vertex -2.53762 4.199 25.6635
      vertex -1.14034 7.41505 26.0817
      vertex -2.33741 4.12613 26.0817
    endloop
  endfacet
  facet normal -0.928123 0.337809 0.156435
    outer loop
      vertex 0.14348 3.22316 24.7365
      vertex 1.40954 6.48697 25.2
      vertex 1.34055 6.51208 24.7365
    endloop
  endfacet
  facet normal -0.928123 0.337809 0.156435
    outer loop
      vertex 1.40954 6.48697 25.2
      vertex 0.14348 3.22316 24.7365
      vertex 0.212468 3.19805 25.2
    endloop
  endfacet
  facet normal -0.813798 0.296198 -0.5
    outer loop
      vertex 4.27456 9.16881 25.2
      vertex 1.53875 6.43994 28.0362
      vertex 2.73582 9.72887 28.0362
    endloop
  endfacet
  facet normal -0.813798 0.296198 -0.5
    outer loop
      vertex 1.53875 6.43994 28.0362
      vertex 4.27456 9.16881 25.2
      vertex 3.07749 5.87988 25.2
    endloop
  endfacet
  facet normal 0.813798 -0.296198 -0.5
    outer loop
      vertex -0.341676 10.849 28.0362
      vertex -3.07749 8.12012 25.2
      vertex -1.88042 11.409 25.2
    endloop
  endfacet
  facet normal 0.813798 -0.296198 -0.5
    outer loop
      vertex -3.07749 8.12012 25.2
      vertex -0.341676 10.849 28.0362
      vertex -1.53875 7.56006 28.0362
    endloop
  endfacet
  facet normal 0 0 -1
    outer loop
      vertex 1.53875 6.43994 28.0362
      vertex -0.341676 10.849 28.0362
      vertex 2.73582 9.72887 28.0362
    endloop
  endfacet
  facet normal 0 -0 -1
    outer loop
      vertex -0.341676 10.849 28.0362
      vertex 1.53875 6.43994 28.0362
      vertex -1.53875 7.56006 28.0362
    endloop
  endfacet
  facet normal 0.34202 0.939693 5.07396e-017
    outer loop
      vertex 1.53875 6.43994 28.0362
      vertex 1.13916e-016 7 26.7
      vertex -1.53875 7.56006 28.0362
    endloop
  endfacet
  facet normal 0.34202 0.939693 -2.42449e-007
    outer loop
      vertex 1.53875 6.43994 28.0362
      vertex 0.435571 6.84146 26.6266
      vertex 1.13916e-016 7 26.7
    endloop
  endfacet
  facet normal 0.34202 0.939693 4.46932e-007
    outer loop
      vertex 1.53875 6.43994 28.0362
      vertex 0.828506 6.69845 26.4135
      vertex 0.435571 6.84146 26.6266
    endloop
  endfacet
  facet normal 0.342021 0.939692 -8.34441e-008
    outer loop
      vertex 1.53875 6.43994 28.0362
      vertex 1.14034 6.58495 26.0817
      vertex 0.828506 6.69845 26.4135
    endloop
  endfacet
  facet normal 0.34202 0.939693 6.27096e-008
    outer loop
      vertex 3.07749 5.87988 25.2
      vertex 1.14034 6.58495 26.0817
      vertex 1.53875 6.43994 28.0362
    endloop
  endfacet
  facet normal 0.34202 0.939693 -4.22033e-007
    outer loop
      vertex 1.14034 6.58495 26.0817
      vertex 3.07749 5.87988 25.2
      vertex 1.34055 6.51208 25.6635
    endloop
  endfacet
  facet normal 0.34202 0.939693 8.30301e-007
    outer loop
      vertex 3.07749 5.87988 25.2
      vertex 1.40954 6.48697 25.2
      vertex 1.34055 6.51208 25.6635
    endloop
  endfacet
  facet normal 0.34202 0.939693 -8.30298e-007
    outer loop
      vertex 3.07749 5.87988 25.2
      vertex 1.34055 6.51208 24.7365
      vertex 1.40954 6.48697 25.2
    endloop
  endfacet
  facet normal 0.34202 0.939693 4.22035e-007
    outer loop
      vertex 3.07749 5.87988 25.2
      vertex 1.14034 6.58495 24.3183
      vertex 1.34055 6.51208 24.7365
    endloop
  endfacet
  facet normal 0.34202 0.939693 -6.27096e-008
    outer loop
      vertex 1.53875 6.43994 22.3638
      vertex 1.14034 6.58495 24.3183
      vertex 3.07749 5.87988 25.2
    endloop
  endfacet
  facet normal 0.342021 0.939692 8.3444e-008
    outer loop
      vertex 1.14034 6.58495 24.3183
      vertex 1.53875 6.43994 22.3638
      vertex 0.828506 6.69845 23.9865
    endloop
  endfacet
  facet normal 0.34202 0.939693 2.42449e-007
    outer loop
      vertex 0.435571 6.84146 23.7734
      vertex 1.53875 6.43994 22.3638
      vertex -1.13916e-016 7 23.7
    endloop
  endfacet
  facet normal 0.34202 0.939693 -4.46933e-007
    outer loop
      vertex 0.828506 6.69845 23.9865
      vertex 1.53875 6.43994 22.3638
      vertex 0.435571 6.84146 23.7734
    endloop
  endfacet
  facet normal 0.34202 0.939693 2.42449e-007
    outer loop
      vertex -0.435571 7.15854 26.6266
      vertex -1.53875 7.56006 28.0362
      vertex 1.13916e-016 7 26.7
    endloop
  endfacet
  facet normal 0.34202 0.939693 -4.46932e-007
    outer loop
      vertex -0.828506 7.30155 26.4135
      vertex -1.53875 7.56006 28.0362
      vertex -0.435571 7.15854 26.6266
    endloop
  endfacet
  facet normal 0.342021 0.939692 8.34441e-008
    outer loop
      vertex -1.14034 7.41505 26.0817
      vertex -1.53875 7.56006 28.0362
      vertex -0.828506 7.30155 26.4135
    endloop
  endfacet
  facet normal 0.34202 0.939693 2.80424e-007
    outer loop
      vertex -3.07749 8.12012 25.2
      vertex -1.14034 7.41505 26.0817
      vertex -1.34055 7.48792 25.6635
    endloop
  endfacet
  facet normal 0.34202 0.939693 -8.70284e-007
    outer loop
      vertex -3.07749 8.12012 25.2
      vertex -1.34055 7.48792 25.6635
      vertex -1.40954 7.51303 25.2
    endloop
  endfacet
  facet normal 0.34202 0.939693 -1.95636e-008
    outer loop
      vertex -1.14034 7.41505 26.0817
      vertex -3.07749 8.12012 25.2
      vertex -1.53875 7.56006 28.0362
    endloop
  endfacet
  facet normal 0.34202 0.939693 8.7028e-007
    outer loop
      vertex -1.34055 7.48792 24.7365
      vertex -3.07749 8.12012 25.2
      vertex -1.40954 7.51303 25.2
    endloop
  endfacet
  facet normal 0.34202 0.939693 -2.80425e-007
    outer loop
      vertex -1.14034 7.41505 24.3183
      vertex -3.07749 8.12012 25.2
      vertex -1.34055 7.48792 24.7365
    endloop
  endfacet
  facet normal 0.342021 0.939692 -8.3444e-008
    outer loop
      vertex -1.53875 7.56006 22.3638
      vertex -1.14034 7.41505 24.3183
      vertex -0.828506 7.30155 23.9865
    endloop
  endfacet
  facet normal 0.34202 0.939693 4.46933e-007
    outer loop
      vertex -1.53875 7.56006 22.3638
      vertex -0.828506 7.30155 23.9865
      vertex -0.435571 7.15854 23.7734
    endloop
  endfacet
  facet normal 0.34202 0.939693 5.07396e-017
    outer loop
      vertex -1.53875 7.56006 22.3638
      vertex -1.13916e-016 7 23.7
      vertex 1.53875 6.43994 22.3638
    endloop
  endfacet
  facet normal 0.34202 0.939693 -2.42449e-007
    outer loop
      vertex -1.13916e-016 7 23.7
      vertex -1.53875 7.56006 22.3638
      vertex -0.435571 7.15854 23.7734
    endloop
  endfacet
  facet normal 0.34202 0.939693 1.95636e-008
    outer loop
      vertex -1.14034 7.41505 24.3183
      vertex -1.53875 7.56006 22.3638
      vertex -3.07749 8.12012 25.2
    endloop
  endfacet
  facet normal 0 0 1
    outer loop
      vertex -0.341676 10.849 22.3638
      vertex 1.53875 6.43994 22.3638
      vertex 2.73582 9.72887 22.3638
    endloop
  endfacet
  facet normal 0 0 1
    outer loop
      vertex 1.53875 6.43994 22.3638
      vertex -0.341676 10.849 22.3638
      vertex -1.53875 7.56006 22.3638
    endloop
  endfacet
  facet normal 0.813798 -0.296198 0.5
    outer loop
      vertex -3.07749 8.12012 25.2
      vertex -0.341676 10.849 22.3638
      vertex -1.88042 11.409 25.2
    endloop
  endfacet
  facet normal 0.813798 -0.296198 0.5
    outer loop
      vertex -0.341676 10.849 22.3638
      vertex -3.07749 8.12012 25.2
      vertex -1.53875 7.56006 22.3638
    endloop
  endfacet
  facet normal -0.813798 0.296198 0.5
    outer loop
      vertex 1.53875 6.43994 22.3638
      vertex 4.27456 9.16881 25.2
      vertex 2.73582 9.72887 22.3638
    endloop
  endfacet
  facet normal -0.813798 0.296198 0.5
    outer loop
      vertex 4.27456 9.16881 25.2
      vertex 1.53875 6.43994 22.3638
      vertex 3.07749 5.87988 25.2
    endloop
  endfacet
  facet normal -0.939693 0.34202 0
    outer loop
      vertex -10.594 7.13128 14.21
      vertex -8.19986 13.7091 52.2
      vertex -8.19986 13.7091 14.21
    endloop
  endfacet
  facet normal -0.939693 0.34202 0
    outer loop
      vertex -8.19986 13.7091 52.2
      vertex -10.594 7.13128 14.21
      vertex -10.594 7.13128 52.2
    endloop
  endfacet
  facet normal 0 0 1
    outer loop
      vertex -8.19986 13.7091 52.2
      vertex 8.19986 0.290874 52.2
      vertex 10.594 6.86872 52.2
    endloop
  endfacet
  facet normal 0 0 1
    outer loop
      vertex 8.19986 0.290874 52.2
      vertex -8.19986 13.7091 52.2
      vertex -10.594 7.13128 52.2
    endloop
  endfacet
  facet normal 0.939693 -0.34202 0
    outer loop
      vertex 8.19986 0.290874 52.2
      vertex 10.594 6.86872 14.21
      vertex 10.594 6.86872 52.2
    endloop
  endfacet
  facet normal 0.939693 -0.34202 0
    outer loop
      vertex 10.594 6.86872 14.21
      vertex 8.19986 0.290874 52.2
      vertex 8.19986 0.290874 14.21
    endloop
  endfacet
  facet normal -0.34202 -0.939693 -8.71363e-009
    outer loop
      vertex -10.594 7.13128 52.2
      vertex -1.19707 3.71108 42.7
      vertex 8.19986 0.290874 52.2
    endloop
  endfacet
  facet normal -0.34202 -0.939693 7.79009e-008
    outer loop
      vertex -10.594 7.13128 52.2
      vertex -1.63264 3.86961 42.6266
      vertex -1.19707 3.71108 42.7
    endloop
  endfacet
  facet normal -0.34202 -0.939693 1.07656e-007
    outer loop
      vertex -10.594 7.13128 52.2
      vertex -2.02558 4.01263 42.4135
      vertex -1.63264 3.86961 42.6266
    endloop
  endfacet
  facet normal -0.34202 -0.939693 -2.58045e-007
    outer loop
      vertex -10.594 7.13128 52.2
      vertex -2.33741 4.12613 42.0817
      vertex -2.02558 4.01263 42.4135
    endloop
  endfacet
  facet normal -0.34202 -0.939693 -1.93709e-007
    outer loop
      vertex -10.594 7.13128 52.2
      vertex -2.53762 4.199 41.6635
      vertex -2.33741 4.12613 42.0817
    endloop
  endfacet
  facet normal -0.342019 -0.939693 5.3397e-007
    outer loop
      vertex -10.594 7.13128 52.2
      vertex -2.60661 4.22411 41.2
      vertex -2.53762 4.199 41.6635
    endloop
  endfacet
  facet normal -0.342021 -0.939692 -8.09299e-007
    outer loop
      vertex -10.594 7.13128 52.2
      vertex -2.53762 4.199 40.7365
      vertex -2.60661 4.22411 41.2
    endloop
  endfacet
  facet normal -0.34202 -0.939693 0
    outer loop
      vertex -2.53762 4.199 25.6635
      vertex -2.53762 4.199 40.7365
      vertex -10.594 7.13128 52.2
    endloop
  endfacet
  facet normal -0.34202 -0.939693 0
    outer loop
      vertex -1.63264 3.86961 39.7734
      vertex -1.19707 3.71108 26.7
      vertex -1.19707 3.71108 39.7
    endloop
  endfacet
  facet normal -0.34202 -0.939693 0
    outer loop
      vertex -1.63264 3.86961 26.6266
      vertex -1.63264 3.86961 39.7734
      vertex -2.02558 4.01263 39.9865
    endloop
  endfacet
  facet normal -0.342021 -0.939692 0
    outer loop
      vertex -2.02558 4.01263 26.4135
      vertex -2.02558 4.01263 39.9865
      vertex -2.33741 4.12613 40.3183
    endloop
  endfacet
  facet normal -0.342021 -0.939692 -0
    outer loop
      vertex -2.53762 4.199 40.7365
      vertex -2.53762 4.199 25.6635
      vertex -2.33741 4.12613 40.3183
    endloop
  endfacet
  facet normal -0.34202 -0.939693 -0
    outer loop
      vertex -1.63264 3.86961 39.7734
      vertex -1.63264 3.86961 26.6266
      vertex -1.19707 3.71108 26.7
    endloop
  endfacet
  facet normal -0.34202 -0.939693 -0
    outer loop
      vertex -2.02558 4.01263 39.9865
      vertex -2.02558 4.01263 26.4135
      vertex -1.63264 3.86961 26.6266
    endloop
  endfacet
  facet normal -0.342021 -0.939692 -0
    outer loop
      vertex -2.33741 4.12613 40.3183
      vertex -2.33741 4.12613 26.0817
      vertex -2.02558 4.01263 26.4135
    endloop
  endfacet
  facet normal -0.342021 -0.939692 -0
    outer loop
      vertex -2.33741 4.12613 40.3183
      vertex -2.53762 4.199 25.6635
      vertex -2.33741 4.12613 26.0817
    endloop
  endfacet
  facet normal -0.34202 -0.939693 0
    outer loop
      vertex -10.594 7.13128 14.21
      vertex -2.53762 4.199 25.6635
      vertex -10.594 7.13128 52.2
    endloop
  endfacet
  facet normal -0.342021 -0.939692 8.0911e-007
    outer loop
      vertex -2.53762 4.199 25.6635
      vertex -10.594 7.13128 14.21
      vertex -2.60661 4.22411 25.2
    endloop
  endfacet
  facet normal -0.34202 -0.939693 -7.79715e-008
    outer loop
      vertex -1.63264 3.86961 23.7734
      vertex -10.594 7.13128 14.21
      vertex -1.19707 3.71108 23.7
    endloop
  endfacet
  facet normal -0.34202 -0.939693 -1.07731e-007
    outer loop
      vertex -2.02558 4.01263 23.9865
      vertex -10.594 7.13128 14.21
      vertex -1.63264 3.86961 23.7734
    endloop
  endfacet
  facet normal -0.34202 -0.939693 2.58182e-007
    outer loop
      vertex -2.33741 4.12613 24.3183
      vertex -10.594 7.13128 14.21
      vertex -2.02558 4.01263 23.9865
    endloop
  endfacet
  facet normal -0.34202 -0.939693 1.9378e-007
    outer loop
      vertex -2.53762 4.199 24.7365
      vertex -10.594 7.13128 14.21
      vertex -2.33741 4.12613 24.3183
    endloop
  endfacet
  facet normal -0.342019 -0.939693 -5.34051e-007
    outer loop
      vertex -2.60661 4.22411 25.2
      vertex -10.594 7.13128 14.21
      vertex -2.53762 4.199 24.7365
    endloop
  endfacet
  facet normal -0.34202 -0.939693 -9.28378e-008
    outer loop
      vertex -0.7615 3.55254 42.6266
      vertex 8.19986 0.290874 52.2
      vertex -1.19707 3.71108 42.7
    endloop
  endfacet
  facet normal -0.34202 -0.939693 2.02687e-007
    outer loop
      vertex -0.368565 3.40952 42.4135
      vertex 8.19986 0.290874 52.2
      vertex -0.7615 3.55254 42.6266
    endloop
  endfacet
  facet normal -0.34202 -0.939693 -2.8565e-007
    outer loop
      vertex -0.0567302 3.29603 42.0817
      vertex 8.19986 0.290874 52.2
      vertex -0.368565 3.40952 42.4135
    endloop
  endfacet
  facet normal -0.34202 -0.939693 1.64097e-007
    outer loop
      vertex 0.14348 3.22316 41.6635
      vertex 8.19986 0.290874 52.2
      vertex -0.0567302 3.29603 42.0817
    endloop
  endfacet
  facet normal -0.34202 -0.939693 -2.36016e-007
    outer loop
      vertex 0.212468 3.19805 41.2
      vertex 8.19986 0.290874 52.2
      vertex 0.14348 3.22316 41.6635
    endloop
  endfacet
  facet normal -0.342021 -0.939692 3.57713e-007
    outer loop
      vertex 0.14348 3.22316 40.7365
      vertex 8.19986 0.290874 52.2
      vertex 0.212468 3.19805 41.2
    endloop
  endfacet
  facet normal -0.342021 -0.939692 0
    outer loop
      vertex 0.14348 3.22316 25.6635
      vertex 0.14348 3.22316 40.7365
      vertex -0.0567302 3.29603 40.3183
    endloop
  endfacet
  facet normal -0.34202 -0.939693 0
    outer loop
      vertex -1.19707 3.71108 26.7
      vertex -0.7615 3.55254 39.7734
      vertex -1.19707 3.71108 39.7
    endloop
  endfacet
  facet normal -0.34202 -0.939693 0
    outer loop
      vertex -0.7615 3.55254 26.6266
      vertex -0.7615 3.55254 39.7734
      vertex -1.19707 3.71108 26.7
    endloop
  endfacet
  facet normal -0.34202 -0.939693 -0
    outer loop
      vertex -0.7615 3.55254 39.7734
      vertex -0.7615 3.55254 26.6266
      vertex -0.368565 3.40952 39.9865
    endloop
  endfacet
  facet normal -0.34202 -0.939693 0
    outer loop
      vertex -0.368565 3.40952 26.4135
      vertex -0.368565 3.40952 39.9865
      vertex -0.7615 3.55254 26.6266
    endloop
  endfacet
  facet normal -0.34202 -0.939693 -0
    outer loop
      vertex -0.368565 3.40952 39.9865
      vertex -0.368565 3.40952 26.4135
      vertex -0.0567302 3.29603 40.3183
    endloop
  endfacet
  facet normal -0.34202 -0.939693 0
    outer loop
      vertex -0.0567302 3.29603 26.0817
      vertex -0.0567302 3.29603 40.3183
      vertex -0.368565 3.40952 26.4135
    endloop
  endfacet
  facet normal -0.342021 -0.939692 0
    outer loop
      vertex 0.14348 3.22316 25.6635
      vertex -0.0567302 3.29603 40.3183
      vertex -0.0567302 3.29603 26.0817
    endloop
  endfacet
  facet normal -0.34202 -0.939693 -0
    outer loop
      vertex 0.14348 3.22316 40.7365
      vertex 0.14348 3.22316 25.6635
      vertex 8.19986 0.290874 52.2
    endloop
  endfacet
  facet normal -0.342021 -0.939692 -3.57629e-007
    outer loop
      vertex 8.19986 0.290874 14.21
      vertex 0.14348 3.22316 25.6635
      vertex 0.212468 3.19805 25.2
    endloop
  endfacet
  facet normal -0.34202 -0.939693 2.36052e-007
    outer loop
      vertex 8.19986 0.290874 14.21
      vertex 0.212468 3.19805 25.2
      vertex 0.14348 3.22316 24.7365
    endloop
  endfacet
  facet normal -0.34202 -0.939693 8.72281e-009
    outer loop
      vertex 8.19986 0.290874 14.21
      vertex -1.19707 3.71108 23.7
      vertex -10.594 7.13128 14.21
    endloop
  endfacet
  facet normal -0.34202 -0.939693 9.2922e-008
    outer loop
      vertex -1.19707 3.71108 23.7
      vertex 8.19986 0.290874 14.21
      vertex -0.7615 3.55254 23.7734
    endloop
  endfacet
  facet normal -0.34202 -0.939693 0
    outer loop
      vertex 0.14348 3.22316 25.6635
      vertex 8.19986 0.290874 14.21
      vertex 8.19986 0.290874 52.2
    endloop
  endfacet
  facet normal -0.34202 -0.939693 -1.64157e-007
    outer loop
      vertex -0.0567302 3.29603 24.3183
      vertex 8.19986 0.290874 14.21
      vertex 0.14348 3.22316 24.7365
    endloop
  endfacet
  facet normal -0.34202 -0.939693 2.85801e-007
    outer loop
      vertex -0.368565 3.40952 23.9865
      vertex 8.19986 0.290874 14.21
      vertex -0.0567302 3.29603 24.3183
    endloop
  endfacet
  facet normal -0.34202 -0.939693 -2.02827e-007
    outer loop
      vertex -0.7615 3.55254 23.7734
      vertex 8.19986 0.290874 14.21
      vertex -0.368565 3.40952 23.9865
    endloop
  endfacet
  facet normal 0.34202 0.939693 2.2877e-008
    outer loop
      vertex 10.594 6.86872 52.2
      vertex 2.73582 9.72887 44.0362
      vertex -8.19986 13.7091 52.2
    endloop
  endfacet
  facet normal 0.34202 0.939693 -1.51715e-007
    outer loop
      vertex 10.594 6.86872 52.2
      vertex 4.27456 9.16881 41.2
      vertex 2.73582 9.72887 44.0362
    endloop
  endfacet
  facet normal 0.34202 0.939693 -0
    outer loop
      vertex 4.27456 9.16881 25.2
      vertex 4.27456 9.16881 41.2
      vertex 10.594 6.86872 52.2
    endloop
  endfacet
  facet normal 0.34202 0.939693 0
    outer loop
      vertex 2.73582 9.72887 38.3638
      vertex 2.73582 9.72887 28.0362
      vertex -0.341676 10.849 38.3638
    endloop
  endfacet
  facet normal 0.342021 0.939692 0
    outer loop
      vertex 4.27456 9.16881 41.2
      vertex 4.27456 9.16881 25.2
      vertex 2.73582 9.72887 38.3638
    endloop
  endfacet
  facet normal 0.342021 0.939692 0
    outer loop
      vertex 2.73582 9.72887 38.3638
      vertex 4.27456 9.16881 25.2
      vertex 2.73582 9.72887 28.0362
    endloop
  endfacet
  facet normal 0.34202 0.939693 -1.65415e-007
    outer loop
      vertex 2.73582 9.72887 22.3638
      vertex 10.594 6.86872 14.21
      vertex -0.341676 10.849 22.3638
    endloop
  endfacet
  facet normal 0.34202 0.939693 1.51782e-007
    outer loop
      vertex 4.27456 9.16881 25.2
      vertex 10.594 6.86872 14.21
      vertex 2.73582 9.72887 22.3638
    endloop
  endfacet
  facet normal 0.34202 0.939693 -0
    outer loop
      vertex 10.594 6.86872 14.21
      vertex 4.27456 9.16881 25.2
      vertex 10.594 6.86872 52.2
    endloop
  endfacet
  facet normal 0.34202 0.939693 -1.75201e-007
    outer loop
      vertex -0.341676 10.849 44.0362
      vertex -8.19986 13.7091 52.2
      vertex 2.73582 9.72887 44.0362
    endloop
  endfacet
  facet normal 0.34202 0.939693 1.38921e-007
    outer loop
      vertex -1.88042 11.409 41.2
      vertex -8.19986 13.7091 52.2
      vertex -0.341676 10.849 44.0362
    endloop
  endfacet
  facet normal 0.342021 0.939692 -0
    outer loop
      vertex -1.88042 11.409 25.2
      vertex -1.88042 11.409 41.2
      vertex -0.341676 10.849 38.3638
    endloop
  endfacet
  facet normal 0.34202 0.939693 -0
    outer loop
      vertex -0.341676 10.849 28.0362
      vertex -0.341676 10.849 38.3638
      vertex 2.73582 9.72887 28.0362
    endloop
  endfacet
  facet normal 0.342021 0.939692 0
    outer loop
      vertex -1.88042 11.409 25.2
      vertex -0.341676 10.849 38.3638
      vertex -0.341676 10.849 28.0362
    endloop
  endfacet
  facet normal 0.34202 0.939693 0
    outer loop
      vertex -1.88042 11.409 41.2
      vertex -1.88042 11.409 25.2
      vertex -8.19986 13.7091 52.2
    endloop
  endfacet
  facet normal 0.34202 0.939693 0
    outer loop
      vertex -1.88042 11.409 25.2
      vertex -8.19986 13.7091 14.21
      vertex -8.19986 13.7091 52.2
    endloop
  endfacet
  facet normal 0.34202 0.939693 -1.38982e-007
    outer loop
      vertex -0.341676 10.849 22.3638
      vertex -8.19986 13.7091 14.21
      vertex -1.88042 11.409 25.2
    endloop
  endfacet
  facet normal 0.34202 0.939693 3.29059e-008
    outer loop
      vertex -8.19986 13.7091 14.21
      vertex -0.341676 10.849 22.3638
      vertex 10.594 6.86872 14.21
    endloop
  endfacet
  facet normal 0 0 -1
    outer loop
      vertex -11 -10.201 10.2
      vertex 11 10.199 10.2
      vertex 11 -10.201 10.2
    endloop
  endfacet
  facet normal -0 0 -1
    outer loop
      vertex 11 10.199 10.2
      vertex -11 -10.201 10.2
      vertex -11 10.199 10.2
    endloop
  endfacet
  facet normal 0 -1 0
    outer loop
      vertex -11 10.199 10.2
      vertex 0 10.199 1.5
      vertex 11 10.199 10.2
    endloop
  endfacet
  facet normal 0 -1 0
    outer loop
      vertex -11 10.199 10.2
      vertex -0.326312 10.199 1.44832
      vertex 0 10.199 1.5
    endloop
  endfacet
  facet normal 0 -1 0
    outer loop
      vertex -11 10.199 10.2
      vertex -0.463525 10.199 1.42658
      vertex -0.326312 10.199 1.44832
    endloop
  endfacet
  facet normal 0 -1 0
    outer loop
      vertex -11 10.199 10.2
      vertex -0.881678 10.199 1.21352
      vertex -0.463525 10.199 1.42658
    endloop
  endfacet
  facet normal 0 -1 0
    outer loop
      vertex -11 10.199 10.2
      vertex -1.21352 10.199 0.881678
      vertex -0.881678 10.199 1.21352
    endloop
  endfacet
  facet normal 0 -1 0
    outer loop
      vertex -11 10.199 10.2
      vertex -1.42658 10.199 0.463525
      vertex -1.21352 10.199 0.881678
    endloop
  endfacet
  facet normal 0 -1 0
    outer loop
      vertex -11 10.199 10.2
      vertex -1.5 10.199 0
      vertex -1.42658 10.199 0.463525
    endloop
  endfacet
  facet normal 0 -1 0
    outer loop
      vertex -11 10.199 -10.19
      vertex -1.5 10.199 0
      vertex -11 10.199 10.2
    endloop
  endfacet
  facet normal 0 -1 -0
    outer loop
      vertex -1.5 10.199 0
      vertex -11 10.199 -10.19
      vertex -1.42658 10.199 -0.463525
    endloop
  endfacet
  facet normal 0 -1 -0
    outer loop
      vertex -0.137213 10.199 -1.47827
      vertex -11 10.199 -10.19
      vertex 0 10.199 -1.5
    endloop
  endfacet
  facet normal 0 -1 -0
    outer loop
      vertex -0.463525 10.199 -1.42658
      vertex -11 10.199 -10.19
      vertex -0.137213 10.199 -1.47827
    endloop
  endfacet
  facet normal 0 -1 -0
    outer loop
      vertex -0.881678 10.199 -1.21352
      vertex -11 10.199 -10.19
      vertex -0.463525 10.199 -1.42658
    endloop
  endfacet
  facet normal 0 -1 -0
    outer loop
      vertex -1.21352 10.199 -0.881678
      vertex -11 10.199 -10.19
      vertex -0.881678 10.199 -1.21352
    endloop
  endfacet
  facet normal 0 -1 -0
    outer loop
      vertex -1.42658 10.199 -0.463525
      vertex -11 10.199 -10.19
      vertex -1.21352 10.199 -0.881678
    endloop
  endfacet
  facet normal 0 -1 0
    outer loop
      vertex 0.326312 10.199 1.44832
      vertex 11 10.199 10.2
      vertex 0 10.199 1.5
    endloop
  endfacet
  facet normal 0 -1 0
    outer loop
      vertex 0.463525 10.199 1.42658
      vertex 11 10.199 10.2
      vertex 0.326312 10.199 1.44832
    endloop
  endfacet
  facet normal 0 -1 0
    outer loop
      vertex 0.881678 10.199 1.21352
      vertex 11 10.199 10.2
      vertex 0.463525 10.199 1.42658
    endloop
  endfacet
  facet normal 0 -1 0
    outer loop
      vertex 1.21352 10.199 0.881678
      vertex 11 10.199 10.2
      vertex 0.881678 10.199 1.21352
    endloop
  endfacet
  facet normal 0 -1 0
    outer loop
      vertex 1.42658 10.199 0.463525
      vertex 11 10.199 10.2
      vertex 1.21352 10.199 0.881678
    endloop
  endfacet
  facet normal 0 -1 0
    outer loop
      vertex 1.5 10.199 0
      vertex 11 10.199 10.2
      vertex 1.42658 10.199 0.463525
    endloop
  endfacet
  facet normal 0 -1 0
    outer loop
      vertex 11 10.199 -10.19
      vertex 1.5 10.199 0
      vertex 1.42658 10.199 -0.463525
    endloop
  endfacet
  facet normal 0 -1 0
    outer loop
      vertex 11 10.199 -10.19
      vertex 1.42658 10.199 -0.463525
      vertex 1.21352 10.199 -0.881678
    endloop
  endfacet
  facet normal 0 -1 0
    outer loop
      vertex 11 10.199 -10.19
      vertex 0 10.199 -1.5
      vertex -11 10.199 -10.19
    endloop
  endfacet
  facet normal 0 -1 0
    outer loop
      vertex 0 10.199 -1.5
      vertex 11 10.199 -10.19
      vertex 0.137213 10.199 -1.47827
    endloop
  endfacet
  facet normal 0 -1 0
    outer loop
      vertex 0.137213 10.199 -1.47827
      vertex 11 10.199 -10.19
      vertex 0.463525 10.199 -1.42658
    endloop
  endfacet
  facet normal 0 -1 0
    outer loop
      vertex 1.5 10.199 0
      vertex 11 10.199 -10.19
      vertex 11 10.199 10.2
    endloop
  endfacet
  facet normal 0 -1 0
    outer loop
      vertex 0.881678 10.199 -1.21352
      vertex 11 10.199 -10.19
      vertex 1.21352 10.199 -0.881678
    endloop
  endfacet
  facet normal 0 -1 0
    outer loop
      vertex 0.463525 10.199 -1.42658
      vertex 11 10.199 -10.19
      vertex 0.881678 10.199 -1.21352
    endloop
  endfacet
  facet normal 0 1 0
    outer loop
      vertex 11 -10.201 10.2
      vertex 0 -10.201 1.5
      vertex -11 -10.201 10.2
    endloop
  endfacet
  facet normal 0 1 0
    outer loop
      vertex 11 -10.201 10.2
      vertex 0.137194 -10.201 1.47827
      vertex 0 -10.201 1.5
    endloop
  endfacet
  facet normal 0 1 0
    outer loop
      vertex 11 -10.201 10.2
      vertex 0.463525 -10.201 1.42658
      vertex 0.137194 -10.201 1.47827
    endloop
  endfacet
  facet normal 0 1 0
    outer loop
      vertex 11 -10.201 10.2
      vertex 0.881678 -10.201 1.21352
      vertex 0.463525 -10.201 1.42658
    endloop
  endfacet
  facet normal 0 1 0
    outer loop
      vertex 11 -10.201 10.2
      vertex 1.21352 -10.201 0.881678
      vertex 0.881678 -10.201 1.21352
    endloop
  endfacet
  facet normal 0 1 0
    outer loop
      vertex 11 -10.201 10.2
      vertex 1.42658 -10.201 0.463525
      vertex 1.21352 -10.201 0.881678
    endloop
  endfacet
  facet normal 0 1 0
    outer loop
      vertex 11 -10.201 10.2
      vertex 1.5 -10.201 0
      vertex 1.42658 -10.201 0.463525
    endloop
  endfacet
  facet normal 0 1 -0
    outer loop
      vertex 11 -10.201 -10.19
      vertex 1.5 -10.201 0
      vertex 11 -10.201 10.2
    endloop
  endfacet
  facet normal 0 1 0
    outer loop
      vertex 1.5 -10.201 0
      vertex 11 -10.201 -10.19
      vertex 1.42658 -10.201 -0.463525
    endloop
  endfacet
  facet normal 0 1 0
    outer loop
      vertex 0.326331 -10.201 -1.44831
      vertex 11 -10.201 -10.19
      vertex 0 -10.201 -1.5
    endloop
  endfacet
  facet normal 0 1 0
    outer loop
      vertex 0.463525 -10.201 -1.42658
      vertex 11 -10.201 -10.19
      vertex 0.326331 -10.201 -1.44831
    endloop
  endfacet
  facet normal 0 1 0
    outer loop
      vertex 0.881678 -10.201 -1.21352
      vertex 11 -10.201 -10.19
      vertex 0.463525 -10.201 -1.42658
    endloop
  endfacet
  facet normal 0 1 0
    outer loop
      vertex 1.21352 -10.201 -0.881678
      vertex 11 -10.201 -10.19
      vertex 0.881678 -10.201 -1.21352
    endloop
  endfacet
  facet normal 0 1 0
    outer loop
      vertex 1.42658 -10.201 -0.463525
      vertex 11 -10.201 -10.19
      vertex 1.21352 -10.201 -0.881678
    endloop
  endfacet
  facet normal 0 1 -0
    outer loop
      vertex -0.137194 -10.201 1.47827
      vertex -11 -10.201 10.2
      vertex 0 -10.201 1.5
    endloop
  endfacet
  facet normal 0 1 -0
    outer loop
      vertex -0.463525 -10.201 1.42658
      vertex -11 -10.201 10.2
      vertex -0.137194 -10.201 1.47827
    endloop
  endfacet
  facet normal 0 1 -0
    outer loop
      vertex -0.881678 -10.201 1.21352
      vertex -11 -10.201 10.2
      vertex -0.463525 -10.201 1.42658
    endloop
  endfacet
  facet normal 0 1 -0
    outer loop
      vertex -1.21352 -10.201 0.881678
      vertex -11 -10.201 10.2
      vertex -0.881678 -10.201 1.21352
    endloop
  endfacet
  facet normal 0 1 -0
    outer loop
      vertex -1.42658 -10.201 0.463525
      vertex -11 -10.201 10.2
      vertex -1.21352 -10.201 0.881678
    endloop
  endfacet
  facet normal 0 1 -0
    outer loop
      vertex -1.5 -10.201 0
      vertex -11 -10.201 10.2
      vertex -1.42658 -10.201 0.463525
    endloop
  endfacet
  facet normal 0 1 0
    outer loop
      vertex -11 -10.201 -10.19
      vertex -1.5 -10.201 0
      vertex -1.42658 -10.201 -0.463525
    endloop
  endfacet
  facet normal 0 1 0
    outer loop
      vertex -11 -10.201 -10.19
      vertex -1.42658 -10.201 -0.463525
      vertex -1.21352 -10.201 -0.881678
    endloop
  endfacet
  facet normal 0 1 0
    outer loop
      vertex -11 -10.201 -10.19
      vertex 0 -10.201 -1.5
      vertex 11 -10.201 -10.19
    endloop
  endfacet
  facet normal 0 1 0
    outer loop
      vertex 0 -10.201 -1.5
      vertex -11 -10.201 -10.19
      vertex -0.326331 -10.201 -1.44831
    endloop
  endfacet
  facet normal 0 1 0
    outer loop
      vertex -0.326331 -10.201 -1.44831
      vertex -11 -10.201 -10.19
      vertex -0.463525 -10.201 -1.42658
    endloop
  endfacet
  facet normal 0 1 0
    outer loop
      vertex -1.5 -10.201 0
      vertex -11 -10.201 -10.19
      vertex -11 -10.201 10.2
    endloop
  endfacet
  facet normal 0 1 0
    outer loop
      vertex -0.881678 -10.201 -1.21352
      vertex -11 -10.201 -10.19
      vertex -1.21352 -10.201 -0.881678
    endloop
  endfacet
  facet normal 0 1 0
    outer loop
      vertex -0.463525 -10.201 -1.42658
      vertex -11 -10.201 -10.19
      vertex -0.881678 -10.201 -1.21352
    endloop
  endfacet
  facet normal -0.987688 0 -0.156436
    outer loop
      vertex 1.5 -14.2 0
      vertex 1.42658 -10.201 0.463525
      vertex 1.5 -10.201 0
    endloop
  endfacet
  facet normal -0.987688 -0 -0.156436
    outer loop
      vertex 1.42658 -10.201 0.463525
      vertex 1.5 -14.2 0
      vertex 1.42658 -14.2 0.463525
    endloop
  endfacet
  facet normal -0.987688 0 -0.156436
    outer loop
      vertex 1.5 10.199 0
      vertex 1.42658 14.2 0.463525
      vertex 1.5 14.2 0
    endloop
  endfacet
  facet normal -0.987688 -0 -0.156436
    outer loop
      vertex 1.42658 14.2 0.463525
      vertex 1.5 10.199 0
      vertex 1.42658 10.199 0.463525
    endloop
  endfacet
  facet normal -0.156434 1.36922e-008 0.987688
    outer loop
      vertex 0 -10.201 -1.5
      vertex 0.363403 -14.2 -1.44244
      vertex 0.326331 -10.201 -1.44831
    endloop
  endfacet
  facet normal -0.156434 0 0.987688
    outer loop
      vertex 0.363403 -14.2 -1.44244
      vertex 0 -10.201 -1.5
      vertex 0 -14.2 -1.5
    endloop
  endfacet
  facet normal -0.156434 2.67178e-008 0.987688
    outer loop
      vertex 0 14.2 -1.5
      vertex 0.137213 10.199 -1.47827
      vertex 0.100121 14.2 -1.48414
    endloop
  endfacet
  facet normal -0.156434 0 0.987688
    outer loop
      vertex 0.137213 10.199 -1.47827
      vertex 0 14.2 -1.5
      vertex 0 10.199 -1.5
    endloop
  endfacet
  facet normal 0.156436 4.61996e-009 -0.987688
    outer loop
      vertex -0.463525 -14.2 1.42658
      vertex -0.137194 -10.201 1.47827
      vertex -0.100121 -14.2 1.48414
    endloop
  endfacet
  facet normal 0.156436 0 -0.987688
    outer loop
      vertex -0.137194 -10.201 1.47827
      vertex -0.463525 -14.2 1.42658
      vertex -0.463525 -10.201 1.42658
    endloop
  endfacet
  facet normal 0.156436 -2.57771e-009 -0.987688
    outer loop
      vertex -0.463525 10.199 1.42658
      vertex -0.363403 14.2 1.44244
      vertex -0.326312 10.199 1.44832
    endloop
  endfacet
  facet normal 0.156436 0 -0.987688
    outer loop
      vertex -0.363403 14.2 1.44244
      vertex -0.463525 10.199 1.42658
      vertex -0.463525 14.2 1.42658
    endloop
  endfacet
  facet normal -0.707107 0 -0.707107
    outer loop
      vertex 1.21352 -14.2 0.881678
      vertex 0.881678 -10.201 1.21352
      vertex 1.21352 -10.201 0.881678
    endloop
  endfacet
  facet normal -0.707107 -0 -0.707107
    outer loop
      vertex 0.881678 -10.201 1.21352
      vertex 1.21352 -14.2 0.881678
      vertex 0.881678 -14.2 1.21352
    endloop
  endfacet
  facet normal -0.707107 0 -0.707107
    outer loop
      vertex 1.21352 10.199 0.881678
      vertex 0.881678 14.2 1.21352
      vertex 1.21352 14.2 0.881678
    endloop
  endfacet
  facet normal -0.707107 -0 -0.707107
    outer loop
      vertex 0.881678 14.2 1.21352
      vertex 1.21352 10.199 0.881678
      vertex 0.881678 10.199 1.21352
    endloop
  endfacet
  facet normal -0.891007 0 -0.45399
    outer loop
      vertex 1.42658 -14.2 0.463525
      vertex 1.21352 -10.201 0.881678
      vertex 1.42658 -10.201 0.463525
    endloop
  endfacet
  facet normal -0.891007 -0 -0.45399
    outer loop
      vertex 1.21352 -10.201 0.881678
      vertex 1.42658 -14.2 0.463525
      vertex 1.21352 -14.2 0.881678
    endloop
  endfacet
  facet normal -0.891007 0 -0.45399
    outer loop
      vertex 1.42658 10.199 0.463525
      vertex 1.21352 14.2 0.881678
      vertex 1.42658 14.2 0.463525
    endloop
  endfacet
  facet normal -0.891007 -0 -0.45399
    outer loop
      vertex 1.21352 14.2 0.881678
      vertex 1.42658 10.199 0.463525
      vertex 1.21352 10.199 0.881678
    endloop
  endfacet
  facet normal 0.707107 -0 0.707107
    outer loop
      vertex -1.21352 -14.2 -0.881678
      vertex -0.881678 -10.201 -1.21352
      vertex -1.21352 -10.201 -0.881678
    endloop
  endfacet
  facet normal 0.707107 0 0.707107
    outer loop
      vertex -0.881678 -10.201 -1.21352
      vertex -1.21352 -14.2 -0.881678
      vertex -0.881678 -14.2 -1.21352
    endloop
  endfacet
  facet normal 0.707107 -0 0.707107
    outer loop
      vertex -1.21352 10.199 -0.881678
      vertex -0.881678 14.2 -1.21352
      vertex -1.21352 14.2 -0.881678
    endloop
  endfacet
  facet normal 0.707107 0 0.707107
    outer loop
      vertex -0.881678 14.2 -1.21352
      vertex -1.21352 10.199 -0.881678
      vertex -0.881678 10.199 -1.21352
    endloop
  endfacet
  facet normal 0.156436 -5.39186e-009 0.987688
    outer loop
      vertex -0.463525 -10.201 -1.42658
      vertex -0.363403 -14.2 -1.44244
      vertex -0.326331 -10.201 -1.44831
    endloop
  endfacet
  facet normal 0.156436 0 0.987688
    outer loop
      vertex -0.363403 -14.2 -1.44244
      vertex -0.463525 -10.201 -1.42658
      vertex -0.463525 -14.2 -1.42658
    endloop
  endfacet
  facet normal 0.156436 6.30047e-009 0.987688
    outer loop
      vertex -0.463525 14.2 -1.42658
      vertex -0.137213 10.199 -1.47827
      vertex -0.100121 14.2 -1.48414
    endloop
  endfacet
  facet normal 0.156436 0 0.987688
    outer loop
      vertex -0.137213 10.199 -1.47827
      vertex -0.463525 14.2 -1.42658
      vertex -0.463525 10.199 -1.42658
    endloop
  endfacet
  facet normal -0.45399 0 0.891007
    outer loop
      vertex 0.463525 -10.201 -1.42658
      vertex 0.881678 -14.2 -1.21352
      vertex 0.881678 -10.201 -1.21352
    endloop
  endfacet
  facet normal -0.45399 0 0.891007
    outer loop
      vertex 0.881678 -14.2 -1.21352
      vertex 0.463525 -10.201 -1.42658
      vertex 0.463525 -14.2 -1.42658
    endloop
  endfacet
  facet normal -0.45399 0 0.891007
    outer loop
      vertex 0.463525 14.2 -1.42658
      vertex 0.881678 10.199 -1.21352
      vertex 0.881678 14.2 -1.21352
    endloop
  endfacet
  facet normal -0.45399 0 0.891007
    outer loop
      vertex 0.881678 10.199 -1.21352
      vertex 0.463525 14.2 -1.42658
      vertex 0.463525 10.199 -1.42658
    endloop
  endfacet
  facet normal -0.156434 -1.57973e-008 -0.987688
    outer loop
      vertex 0 -14.2 1.5
      vertex 0.137194 -10.201 1.47827
      vertex 0.100121 -14.2 1.48414
    endloop
  endfacet
  facet normal -0.156434 0 -0.987688
    outer loop
      vertex 0.137194 -10.201 1.47827
      vertex 0 -14.2 1.5
      vertex 0 -10.201 1.5
    endloop
  endfacet
  facet normal -0.156434 -2.58553e-008 -0.987688
    outer loop
      vertex 0 10.199 1.5
      vertex 0.363403 14.2 1.44244
      vertex 0.326312 10.199 1.44832
    endloop
  endfacet
  facet normal -0.156434 0 -0.987688
    outer loop
      vertex 0.363403 14.2 1.44244
      vertex 0 10.199 1.5
      vertex 0 14.2 1.5
    endloop
  endfacet
  facet normal 0.987688 0 -0.156436
    outer loop
      vertex -1.42658 -14.2 0.463525
      vertex -1.5 -10.201 0
      vertex -1.42658 -10.201 0.463525
    endloop
  endfacet
  facet normal 0.987688 0 -0.156436
    outer loop
      vertex -1.5 -10.201 0
      vertex -1.42658 -14.2 0.463525
      vertex -1.5 -14.2 0
    endloop
  endfacet
  facet normal 0.987688 0 -0.156436
    outer loop
      vertex -1.42658 10.199 0.463525
      vertex -1.5 14.2 0
      vertex -1.42658 14.2 0.463525
    endloop
  endfacet
  facet normal 0.987688 0 -0.156436
    outer loop
      vertex -1.5 14.2 0
      vertex -1.42658 10.199 0.463525
      vertex -1.5 10.199 0
    endloop
  endfacet
  facet normal 0.891007 0 -0.45399
    outer loop
      vertex -1.21352 -14.2 0.881678
      vertex -1.42658 -10.201 0.463525
      vertex -1.21352 -10.201 0.881678
    endloop
  endfacet
  facet normal 0.891007 0 -0.45399
    outer loop
      vertex -1.42658 -10.201 0.463525
      vertex -1.21352 -14.2 0.881678
      vertex -1.42658 -14.2 0.463525
    endloop
  endfacet
  facet normal 0.891007 0 -0.45399
    outer loop
      vertex -1.21352 10.199 0.881678
      vertex -1.42658 14.2 0.463525
      vertex -1.21352 14.2 0.881678
    endloop
  endfacet
  facet normal 0.891007 0 -0.45399
    outer loop
      vertex -1.42658 14.2 0.463525
      vertex -1.21352 10.199 0.881678
      vertex -1.42658 10.199 0.463525
    endloop
  endfacet
  facet normal 0.707107 0 -0.707107
    outer loop
      vertex -0.881678 -14.2 1.21352
      vertex -1.21352 -10.201 0.881678
      vertex -0.881678 -10.201 1.21352
    endloop
  endfacet
  facet normal 0.707107 0 -0.707107
    outer loop
      vertex -1.21352 -10.201 0.881678
      vertex -0.881678 -14.2 1.21352
      vertex -1.21352 -14.2 0.881678
    endloop
  endfacet
  facet normal 0.707107 0 -0.707107
    outer loop
      vertex -0.881678 10.199 1.21352
      vertex -1.21352 14.2 0.881678
      vertex -0.881678 14.2 1.21352
    endloop
  endfacet
  facet normal 0.707107 0 -0.707107
    outer loop
      vertex -1.21352 14.2 0.881678
      vertex -0.881678 10.199 1.21352
      vertex -1.21352 10.199 0.881678
    endloop
  endfacet
  facet normal 0.156434 0 0.987688
    outer loop
      vertex -0.326331 -10.201 -1.44831
      vertex 0 -14.2 -1.5
      vertex 0 -10.201 -1.5
    endloop
  endfacet
  facet normal 0.156434 1.22954e-008 0.987688
    outer loop
      vertex 0 -14.2 -1.5
      vertex -0.326331 -10.201 -1.44831
      vertex -0.363403 -14.2 -1.44244
    endloop
  endfacet
  facet normal 0.156434 0 0.987688
    outer loop
      vertex -0.100121 14.2 -1.48414
      vertex 0 10.199 -1.5
      vertex 0 14.2 -1.5
    endloop
  endfacet
  facet normal 0.156434 1.94954e-008 0.987688
    outer loop
      vertex 0 10.199 -1.5
      vertex -0.100121 14.2 -1.48414
      vertex -0.137213 10.199 -1.47827
    endloop
  endfacet
  facet normal 0.45399 0 0.891007
    outer loop
      vertex -0.881678 -10.201 -1.21352
      vertex -0.463525 -14.2 -1.42658
      vertex -0.463525 -10.201 -1.42658
    endloop
  endfacet
  facet normal 0.45399 0 0.891007
    outer loop
      vertex -0.463525 -14.2 -1.42658
      vertex -0.881678 -10.201 -1.21352
      vertex -0.881678 -14.2 -1.21352
    endloop
  endfacet
  facet normal 0.45399 0 0.891007
    outer loop
      vertex -0.881678 14.2 -1.21352
      vertex -0.463525 10.199 -1.42658
      vertex -0.463525 14.2 -1.42658
    endloop
  endfacet
  facet normal 0.45399 0 0.891007
    outer loop
      vertex -0.463525 10.199 -1.42658
      vertex -0.881678 14.2 -1.21352
      vertex -0.881678 10.199 -1.21352
    endloop
  endfacet
  facet normal -0.156436 0 0.987688
    outer loop
      vertex 0.463525 -10.201 -1.42658
      vertex 0.363403 -14.2 -1.44244
      vertex 0.463525 -14.2 -1.42658
    endloop
  endfacet
  facet normal -0.156436 -5.39186e-009 0.987688
    outer loop
      vertex 0.363403 -14.2 -1.44244
      vertex 0.463525 -10.201 -1.42658
      vertex 0.326331 -10.201 -1.44831
    endloop
  endfacet
  facet normal -0.156436 0 0.987688
    outer loop
      vertex 0.463525 14.2 -1.42658
      vertex 0.137213 10.199 -1.47827
      vertex 0.463525 10.199 -1.42658
    endloop
  endfacet
  facet normal -0.156436 6.30047e-009 0.987688
    outer loop
      vertex 0.137213 10.199 -1.47827
      vertex 0.463525 14.2 -1.42658
      vertex 0.100121 14.2 -1.48414
    endloop
  endfacet
  facet normal -0.707107 0 0.707107
    outer loop
      vertex 0.881678 -14.2 -1.21352
      vertex 1.21352 -10.201 -0.881678
      vertex 0.881678 -10.201 -1.21352
    endloop
  endfacet
  facet normal -0.707107 0 0.707107
    outer loop
      vertex 1.21352 -10.201 -0.881678
      vertex 0.881678 -14.2 -1.21352
      vertex 1.21352 -14.2 -0.881678
    endloop
  endfacet
  facet normal -0.707107 0 0.707107
    outer loop
      vertex 0.881678 10.199 -1.21352
      vertex 1.21352 14.2 -0.881678
      vertex 0.881678 14.2 -1.21352
    endloop
  endfacet
  facet normal -0.707107 0 0.707107
    outer loop
      vertex 1.21352 14.2 -0.881678
      vertex 0.881678 10.199 -1.21352
      vertex 1.21352 10.199 -0.881678
    endloop
  endfacet
  facet normal -0.45399 0 -0.891007
    outer loop
      vertex 0.463525 -14.2 1.42658
      vertex 0.881678 -10.201 1.21352
      vertex 0.881678 -14.2 1.21352
    endloop
  endfacet
  facet normal -0.45399 0 -0.891007
    outer loop
      vertex 0.881678 -10.201 1.21352
      vertex 0.463525 -14.2 1.42658
      vertex 0.463525 -10.201 1.42658
    endloop
  endfacet
  facet normal -0.45399 0 -0.891007
    outer loop
      vertex 0.463525 10.199 1.42658
      vertex 0.881678 14.2 1.21352
      vertex 0.881678 10.199 1.21352
    endloop
  endfacet
  facet normal -0.45399 0 -0.891007
    outer loop
      vertex 0.881678 14.2 1.21352
      vertex 0.463525 10.199 1.42658
      vertex 0.463525 14.2 1.42658
    endloop
  endfacet
  facet normal -0.156436 0 -0.987688
    outer loop
      vertex 0.463525 -14.2 1.42658
      vertex 0.137194 -10.201 1.47827
      vertex 0.463525 -10.201 1.42658
    endloop
  endfacet
  facet normal -0.156436 4.61996e-009 -0.987688
    outer loop
      vertex 0.137194 -10.201 1.47827
      vertex 0.463525 -14.2 1.42658
      vertex 0.100121 -14.2 1.48414
    endloop
  endfacet
  facet normal -0.156436 0 -0.987688
    outer loop
      vertex 0.463525 10.199 1.42658
      vertex 0.363403 14.2 1.44244
      vertex 0.463525 14.2 1.42658
    endloop
  endfacet
  facet normal -0.156436 -2.57771e-009 -0.987688
    outer loop
      vertex 0.363403 14.2 1.44244
      vertex 0.463525 10.199 1.42658
      vertex 0.326312 10.199 1.44832
    endloop
  endfacet
  facet normal 0.156434 0 -0.987688
    outer loop
      vertex -0.100121 -14.2 1.48414
      vertex 0 -10.201 1.5
      vertex 0 -14.2 1.5
    endloop
  endfacet
  facet normal 0.156434 -1.15286e-008 -0.987688
    outer loop
      vertex 0 -10.201 1.5
      vertex -0.100121 -14.2 1.48414
      vertex -0.137194 -10.201 1.47827
    endloop
  endfacet
  facet normal 0.156434 0 -0.987688
    outer loop
      vertex -0.326312 10.199 1.44832
      vertex 0 14.2 1.5
      vertex 0 10.199 1.5
    endloop
  endfacet
  facet normal 0.156434 -2.32164e-008 -0.987688
    outer loop
      vertex 0 14.2 1.5
      vertex -0.326312 10.199 1.44832
      vertex -0.363403 14.2 1.44244
    endloop
  endfacet
  facet normal -0.891007 0 0.45399
    outer loop
      vertex 1.21352 -14.2 -0.881678
      vertex 1.42658 -10.201 -0.463525
      vertex 1.21352 -10.201 -0.881678
    endloop
  endfacet
  facet normal -0.891007 0 0.45399
    outer loop
      vertex 1.42658 -10.201 -0.463525
      vertex 1.21352 -14.2 -0.881678
      vertex 1.42658 -14.2 -0.463525
    endloop
  endfacet
  facet normal -0.891007 0 0.45399
    outer loop
      vertex 1.21352 10.199 -0.881678
      vertex 1.42658 14.2 -0.463525
      vertex 1.21352 14.2 -0.881678
    endloop
  endfacet
  facet normal -0.891007 0 0.45399
    outer loop
      vertex 1.42658 14.2 -0.463525
      vertex 1.21352 10.199 -0.881678
      vertex 1.42658 10.199 -0.463525
    endloop
  endfacet
  facet normal -0.987688 0 0.156436
    outer loop
      vertex 1.42658 -14.2 -0.463525
      vertex 1.5 -10.201 0
      vertex 1.42658 -10.201 -0.463525
    endloop
  endfacet
  facet normal -0.987688 0 0.156436
    outer loop
      vertex 1.5 -10.201 0
      vertex 1.42658 -14.2 -0.463525
      vertex 1.5 -14.2 0
    endloop
  endfacet
  facet normal -0.987688 0 0.156436
    outer loop
      vertex 1.42658 10.199 -0.463525
      vertex 1.5 14.2 0
      vertex 1.42658 14.2 -0.463525
    endloop
  endfacet
  facet normal -0.987688 0 0.156436
    outer loop
      vertex 1.5 14.2 0
      vertex 1.42658 10.199 -0.463525
      vertex 1.5 10.199 0
    endloop
  endfacet
  facet normal 0.987688 -0 0.156436
    outer loop
      vertex -1.5 -14.2 0
      vertex -1.42658 -10.201 -0.463525
      vertex -1.5 -10.201 0
    endloop
  endfacet
  facet normal 0.987688 0 0.156436
    outer loop
      vertex -1.42658 -10.201 -0.463525
      vertex -1.5 -14.2 0
      vertex -1.42658 -14.2 -0.463525
    endloop
  endfacet
  facet normal 0.987688 -0 0.156436
    outer loop
      vertex -1.5 10.199 0
      vertex -1.42658 14.2 -0.463525
      vertex -1.5 14.2 0
    endloop
  endfacet
  facet normal 0.987688 0 0.156436
    outer loop
      vertex -1.42658 14.2 -0.463525
      vertex -1.5 10.199 0
      vertex -1.42658 10.199 -0.463525
    endloop
  endfacet
  facet normal 0.891007 -0 0.45399
    outer loop
      vertex -1.42658 -14.2 -0.463525
      vertex -1.21352 -10.201 -0.881678
      vertex -1.42658 -10.201 -0.463525
    endloop
  endfacet
  facet normal 0.891007 0 0.45399
    outer loop
      vertex -1.21352 -10.201 -0.881678
      vertex -1.42658 -14.2 -0.463525
      vertex -1.21352 -14.2 -0.881678
    endloop
  endfacet
  facet normal 0.891007 -0 0.45399
    outer loop
      vertex -1.42658 10.199 -0.463525
      vertex -1.21352 14.2 -0.881678
      vertex -1.42658 14.2 -0.463525
    endloop
  endfacet
  facet normal 0.891007 0 0.45399
    outer loop
      vertex -1.21352 14.2 -0.881678
      vertex -1.42658 10.199 -0.463525
      vertex -1.21352 10.199 -0.881678
    endloop
  endfacet
  facet normal 0.45399 0 -0.891007
    outer loop
      vertex -0.881678 -14.2 1.21352
      vertex -0.463525 -10.201 1.42658
      vertex -0.463525 -14.2 1.42658
    endloop
  endfacet
  facet normal 0.45399 0 -0.891007
    outer loop
      vertex -0.463525 -10.201 1.42658
      vertex -0.881678 -14.2 1.21352
      vertex -0.881678 -10.201 1.21352
    endloop
  endfacet
  facet normal 0.45399 0 -0.891007
    outer loop
      vertex -0.881678 10.199 1.21352
      vertex -0.463525 14.2 1.42658
      vertex -0.463525 10.199 1.42658
    endloop
  endfacet
  facet normal 0.45399 0 -0.891007
    outer loop
      vertex -0.463525 14.2 1.42658
      vertex -0.881678 10.199 1.21352
      vertex -0.881678 14.2 1.21352
    endloop
  endfacet
  facet normal -1 0 0
    outer loop
      vertex -11 -10.201 -10.19
      vertex -11 -14.2 -10.19
      vertex -11 -10.201 10.2
    endloop
  endfacet
  facet normal -1 0 0
    outer loop
      vertex -11 10.199 10.2
      vertex -11 14.2 -10.19
      vertex -11 10.199 -10.19
    endloop
  endfacet
  facet normal -1 0 0
    outer loop
      vertex -11 14.2 -10.19
      vertex -11 10.199 10.2
      vertex -11 14.2 14.21
    endloop
  endfacet
  facet normal -1 0 0
    outer loop
      vertex -11 -10.201 10.2
      vertex -11 14.2 14.21
      vertex -11 10.199 10.2
    endloop
  endfacet
  facet normal -1 0 0
    outer loop
      vertex -11 -10.201 10.2
      vertex -11 -14.2 14.21
      vertex -11 14.2 14.21
    endloop
  endfacet
  facet normal -1 0 0
    outer loop
      vertex -11 -14.2 14.21
      vertex -11 -10.201 10.2
      vertex -11 -14.2 -10.19
    endloop
  endfacet
  facet normal 0 0 1
    outer loop
      vertex 11 14.2 14.21
      vertex 10.594 6.86872 14.21
      vertex 11 -14.2 14.21
    endloop
  endfacet
  facet normal 0 0 1
    outer loop
      vertex 11 14.2 14.21
      vertex -8.19986 13.7091 14.21
      vertex 10.594 6.86872 14.21
    endloop
  endfacet
  facet normal 0 0 1
    outer loop
      vertex -8.19986 13.7091 14.21
      vertex -11 14.2 14.21
      vertex -10.594 7.13128 14.21
    endloop
  endfacet
  facet normal -0 0 1
    outer loop
      vertex -11 14.2 14.21
      vertex -8.19986 13.7091 14.21
      vertex 11 14.2 14.21
    endloop
  endfacet
  facet normal -0 0 1
    outer loop
      vertex 8.19986 0.290874 14.21
      vertex 11 -14.2 14.21
      vertex 10.594 6.86872 14.21
    endloop
  endfacet
  facet normal 0 0 1
    outer loop
      vertex -11 -14.2 14.21
      vertex 8.19986 0.290874 14.21
      vertex -10.594 7.13128 14.21
    endloop
  endfacet
  facet normal 0 0 1
    outer loop
      vertex 8.19986 0.290874 14.21
      vertex -11 -14.2 14.21
      vertex 11 -14.2 14.21
    endloop
  endfacet
  facet normal 0 0 1
    outer loop
      vertex -11 -14.2 14.21
      vertex -10.594 7.13128 14.21
      vertex -11 14.2 14.21
    endloop
  endfacet
  facet normal 1 0 0
    outer loop
      vertex 11 14.2 14.21
      vertex 11 10.199 10.2
      vertex 11 14.2 -10.19
    endloop
  endfacet
  facet normal 1 0 0
    outer loop
      vertex 11 14.2 14.21
      vertex 11 -10.201 10.2
      vertex 11 10.199 10.2
    endloop
  endfacet
  facet normal 1 -0 0
    outer loop
      vertex 11 -14.2 14.21
      vertex 11 -10.201 10.2
      vertex 11 14.2 14.21
    endloop
  endfacet
  facet normal 1 0 0
    outer loop
      vertex 11 -14.2 -10.19
      vertex 11 -10.201 10.2
      vertex 11 -14.2 14.21
    endloop
  endfacet
  facet normal 1 0 0
    outer loop
      vertex 11 -10.201 10.2
      vertex 11 -14.2 -10.19
      vertex 11 -10.201 -10.19
    endloop
  endfacet
  facet normal 1 0 0
    outer loop
      vertex 11 14.2 -10.19
      vertex 11 10.199 10.2
      vertex 11 10.199 -10.19
    endloop
  endfacet
  facet normal 0 0 -1
    outer loop
      vertex -11 10.199 -10.19
      vertex 11 14.2 -10.19
      vertex 11 10.199 -10.19
    endloop
  endfacet
  facet normal -0 0 -1
    outer loop
      vertex 11 14.2 -10.19
      vertex -11 10.199 -10.19
      vertex -11 14.2 -10.19
    endloop
  endfacet
  facet normal 0 0 -1
    outer loop
      vertex -11 -14.2 -10.19
      vertex 11 -10.201 -10.19
      vertex 11 -14.2 -10.19
    endloop
  endfacet
  facet normal -0 0 -1
    outer loop
      vertex 11 -10.201 -10.19
      vertex -11 -14.2 -10.19
      vertex -11 -10.201 -10.19
    endloop
  endfacet
  facet normal 0 -1 0
    outer loop
      vertex -11 -14.2 14.21
      vertex 0 -14.2 1.5
      vertex 11 -14.2 14.21
    endloop
  endfacet
  facet normal 0 -1 0
    outer loop
      vertex -11 -14.2 14.21
      vertex -0.100121 -14.2 1.48414
      vertex 0 -14.2 1.5
    endloop
  endfacet
  facet normal 0 -1 0
    outer loop
      vertex -11 -14.2 14.21
      vertex -0.463525 -14.2 1.42658
      vertex -0.100121 -14.2 1.48414
    endloop
  endfacet
  facet normal 0 -1 0
    outer loop
      vertex -11 -14.2 14.21
      vertex -0.881678 -14.2 1.21352
      vertex -0.463525 -14.2 1.42658
    endloop
  endfacet
  facet normal 0 -1 0
    outer loop
      vertex -11 -14.2 14.21
      vertex -1.21352 -14.2 0.881678
      vertex -0.881678 -14.2 1.21352
    endloop
  endfacet
  facet normal 0 -1 0
    outer loop
      vertex -11 -14.2 14.21
      vertex -1.42658 -14.2 0.463525
      vertex -1.21352 -14.2 0.881678
    endloop
  endfacet
  facet normal 0 -1 0
    outer loop
      vertex -11 -14.2 14.21
      vertex -1.5 -14.2 0
      vertex -1.42658 -14.2 0.463525
    endloop
  endfacet
  facet normal 0 -1 0
    outer loop
      vertex -11 -14.2 -10.19
      vertex -1.5 -14.2 0
      vertex -11 -14.2 14.21
    endloop
  endfacet
  facet normal 0 -1 -0
    outer loop
      vertex -1.5 -14.2 0
      vertex -11 -14.2 -10.19
      vertex -1.42658 -14.2 -0.463525
    endloop
  endfacet
  facet normal 0 -1 -0
    outer loop
      vertex -0.363403 -14.2 -1.44244
      vertex -11 -14.2 -10.19
      vertex 0 -14.2 -1.5
    endloop
  endfacet
  facet normal 0 -1 -0
    outer loop
      vertex -0.463525 -14.2 -1.42658
      vertex -11 -14.2 -10.19
      vertex -0.363403 -14.2 -1.44244
    endloop
  endfacet
  facet normal 0 -1 -0
    outer loop
      vertex -0.881678 -14.2 -1.21352
      vertex -11 -14.2 -10.19
      vertex -0.463525 -14.2 -1.42658
    endloop
  endfacet
  facet normal 0 -1 -0
    outer loop
      vertex -1.21352 -14.2 -0.881678
      vertex -11 -14.2 -10.19
      vertex -0.881678 -14.2 -1.21352
    endloop
  endfacet
  facet normal 0 -1 -0
    outer loop
      vertex -1.42658 -14.2 -0.463525
      vertex -11 -14.2 -10.19
      vertex -1.21352 -14.2 -0.881678
    endloop
  endfacet
  facet normal 0 -1 0
    outer loop
      vertex 0.100121 -14.2 1.48414
      vertex 11 -14.2 14.21
      vertex 0 -14.2 1.5
    endloop
  endfacet
  facet normal 0 -1 0
    outer loop
      vertex 0.463525 -14.2 1.42658
      vertex 11 -14.2 14.21
      vertex 0.100121 -14.2 1.48414
    endloop
  endfacet
  facet normal 0 -1 0
    outer loop
      vertex 0.881678 -14.2 1.21352
      vertex 11 -14.2 14.21
      vertex 0.463525 -14.2 1.42658
    endloop
  endfacet
  facet normal 0 -1 0
    outer loop
      vertex 1.21352 -14.2 0.881678
      vertex 11 -14.2 14.21
      vertex 0.881678 -14.2 1.21352
    endloop
  endfacet
  facet normal 0 -1 0
    outer loop
      vertex 1.42658 -14.2 0.463525
      vertex 11 -14.2 14.21
      vertex 1.21352 -14.2 0.881678
    endloop
  endfacet
  facet normal 0 -1 0
    outer loop
      vertex 1.5 -14.2 0
      vertex 11 -14.2 14.21
      vertex 1.42658 -14.2 0.463525
    endloop
  endfacet
  facet normal 0 -1 0
    outer loop
      vertex 11 -14.2 -10.19
      vertex 1.5 -14.2 0
      vertex 1.42658 -14.2 -0.463525
    endloop
  endfacet
  facet normal 0 -1 0
    outer loop
      vertex 11 -14.2 -10.19
      vertex 1.42658 -14.2 -0.463525
      vertex 1.21352 -14.2 -0.881678
    endloop
  endfacet
  facet normal 0 -1 0
    outer loop
      vertex 11 -14.2 -10.19
      vertex 0 -14.2 -1.5
      vertex -11 -14.2 -10.19
    endloop
  endfacet
  facet normal 0 -1 0
    outer loop
      vertex 0 -14.2 -1.5
      vertex 11 -14.2 -10.19
      vertex 0.363403 -14.2 -1.44244
    endloop
  endfacet
  facet normal 0 -1 0
    outer loop
      vertex 0.363403 -14.2 -1.44244
      vertex 11 -14.2 -10.19
      vertex 0.463525 -14.2 -1.42658
    endloop
  endfacet
  facet normal 0 -1 0
    outer loop
      vertex 1.5 -14.2 0
      vertex 11 -14.2 -10.19
      vertex 11 -14.2 14.21
    endloop
  endfacet
  facet normal 0 -1 0
    outer loop
      vertex 0.881678 -14.2 -1.21352
      vertex 11 -14.2 -10.19
      vertex 1.21352 -14.2 -0.881678
    endloop
  endfacet
  facet normal 0 -1 0
    outer loop
      vertex 0.463525 -14.2 -1.42658
      vertex 11 -14.2 -10.19
      vertex 0.881678 -14.2 -1.21352
    endloop
  endfacet
  facet normal 0 1 0
    outer loop
      vertex 11 14.2 14.21
      vertex 0 14.2 1.5
      vertex -11 14.2 14.21
    endloop
  endfacet
  facet normal 0 1 0
    outer loop
      vertex 11 14.2 14.21
      vertex 0.363403 14.2 1.44244
      vertex 0 14.2 1.5
    endloop
  endfacet
  facet normal 0 1 0
    outer loop
      vertex 11 14.2 14.21
      vertex 0.463525 14.2 1.42658
      vertex 0.363403 14.2 1.44244
    endloop
  endfacet
  facet normal 0 1 0
    outer loop
      vertex 11 14.2 14.21
      vertex 0.881678 14.2 1.21352
      vertex 0.463525 14.2 1.42658
    endloop
  endfacet
  facet normal 0 1 0
    outer loop
      vertex 11 14.2 14.21
      vertex 1.21352 14.2 0.881678
      vertex 0.881678 14.2 1.21352
    endloop
  endfacet
  facet normal 0 1 0
    outer loop
      vertex 11 14.2 14.21
      vertex 1.42658 14.2 0.463525
      vertex 1.21352 14.2 0.881678
    endloop
  endfacet
  facet normal 0 1 0
    outer loop
      vertex 11 14.2 14.21
      vertex 1.5 14.2 0
      vertex 1.42658 14.2 0.463525
    endloop
  endfacet
  facet normal 0 1 -0
    outer loop
      vertex 11 14.2 -10.19
      vertex 1.5 14.2 0
      vertex 11 14.2 14.21
    endloop
  endfacet
  facet normal 0 1 0
    outer loop
      vertex 1.5 14.2 0
      vertex 11 14.2 -10.19
      vertex 1.42658 14.2 -0.463525
    endloop
  endfacet
  facet normal 0 1 0
    outer loop
      vertex 0.100121 14.2 -1.48414
      vertex 11 14.2 -10.19
      vertex 0 14.2 -1.5
    endloop
  endfacet
  facet normal 0 1 0
    outer loop
      vertex 0.463525 14.2 -1.42658
      vertex 11 14.2 -10.19
      vertex 0.100121 14.2 -1.48414
    endloop
  endfacet
  facet normal 0 1 0
    outer loop
      vertex 0.881678 14.2 -1.21352
      vertex 11 14.2 -10.19
      vertex 0.463525 14.2 -1.42658
    endloop
  endfacet
  facet normal 0 1 0
    outer loop
      vertex 1.21352 14.2 -0.881678
      vertex 11 14.2 -10.19
      vertex 0.881678 14.2 -1.21352
    endloop
  endfacet
  facet normal 0 1 0
    outer loop
      vertex 1.42658 14.2 -0.463525
      vertex 11 14.2 -10.19
      vertex 1.21352 14.2 -0.881678
    endloop
  endfacet
  facet normal 0 1 -0
    outer loop
      vertex -0.363403 14.2 1.44244
      vertex -11 14.2 14.21
      vertex 0 14.2 1.5
    endloop
  endfacet
  facet normal 0 1 -0
    outer loop
      vertex -0.463525 14.2 1.42658
      vertex -11 14.2 14.21
      vertex -0.363403 14.2 1.44244
    endloop
  endfacet
  facet normal 0 1 -0
    outer loop
      vertex -0.881678 14.2 1.21352
      vertex -11 14.2 14.21
      vertex -0.463525 14.2 1.42658
    endloop
  endfacet
  facet normal 0 1 -0
    outer loop
      vertex -1.21352 14.2 0.881678
      vertex -11 14.2 14.21
      vertex -0.881678 14.2 1.21352
    endloop
  endfacet
  facet normal 0 1 -0
    outer loop
      vertex -1.42658 14.2 0.463525
      vertex -11 14.2 14.21
      vertex -1.21352 14.2 0.881678
    endloop
  endfacet
  facet normal 0 1 -0
    outer loop
      vertex -1.5 14.2 0
      vertex -11 14.2 14.21
      vertex -1.42658 14.2 0.463525
    endloop
  endfacet
  facet normal 0 1 0
    outer loop
      vertex -11 14.2 -10.19
      vertex -1.5 14.2 0
      vertex -1.42658 14.2 -0.463525
    endloop
  endfacet
  facet normal 0 1 0
    outer loop
      vertex -11 14.2 -10.19
      vertex -1.42658 14.2 -0.463525
      vertex -1.21352 14.2 -0.881678
    endloop
  endfacet
  facet normal 0 1 0
    outer loop
      vertex -11 14.2 -10.19
      vertex 0 14.2 -1.5
      vertex 11 14.2 -10.19
    endloop
  endfacet
  facet normal 0 1 0
    outer loop
      vertex 0 14.2 -1.5
      vertex -11 14.2 -10.19
      vertex -0.100121 14.2 -1.48414
    endloop
  endfacet
  facet normal 0 1 0
    outer loop
      vertex -0.100121 14.2 -1.48414
      vertex -11 14.2 -10.19
      vertex -0.463525 14.2 -1.42658
    endloop
  endfacet
  facet normal 0 1 0
    outer loop
      vertex -1.5 14.2 0
      vertex -11 14.2 -10.19
      vertex -11 14.2 14.21
    endloop
  endfacet
  facet normal 0 1 0
    outer loop
      vertex -0.881678 14.2 -1.21352
      vertex -11 14.2 -10.19
      vertex -1.21352 14.2 -0.881678
    endloop
  endfacet
  facet normal 0 1 0
    outer loop
      vertex -0.463525 14.2 -1.42658
      vertex -11 14.2 -10.19
      vertex -0.881678 14.2 -1.21352
    endloop
  endfacet
endsolid OpenSCAD_Model
