solid OpenSCAD_Model
  facet normal -0.661313 -0.75011 0
    outer loop
      vertex 0.956136 1.15577 0
      vertex 1.02682 1.09345 2.5
      vertex 0.956136 1.15577 2.5
    endloop
  endfacet
  facet normal -0.661313 -0.75011 -0
    outer loop
      vertex 1.02682 1.09345 2.5
      vertex 0.956136 1.15577 0
      vertex 1.02682 1.09345 0
    endloop
  endfacet
  facet normal 0.338742 -0.940879 0
    outer loop
      vertex -0.552186 1.39466 0
      vertex -0.463525 1.42658 2.5
      vertex -0.552186 1.39466 2.5
    endloop
  endfacet
  facet normal 0.338742 -0.940879 0
    outer loop
      vertex -0.463525 1.42658 2.5
      vertex -0.552186 1.39466 0
      vertex -0.463525 1.42658 0
    endloop
  endfacet
  facet normal 0.891011 -0.453981 0
    outer loop
      vertex -1.35724 0.638668 2.5
      vertex -1.31446 0.722631 0
      vertex -1.31446 0.722631 2.5
    endloop
  endfacet
  facet normal 0.891011 -0.453981 0
    outer loop
      vertex -1.31446 0.722631 0
      vertex -1.35724 0.638668 2.5
      vertex -1.35724 0.638668 0
    endloop
  endfacet
  facet normal -0.891011 -0.453981 0
    outer loop
      vertex 1.35724 0.638668 0
      vertex 1.31446 0.722631 2.5
      vertex 1.31446 0.722631 0
    endloop
  endfacet
  facet normal -0.891011 -0.453981 0
    outer loop
      vertex 1.31446 0.722631 2.5
      vertex 1.35724 0.638668 0
      vertex 1.35724 0.638668 2.5
    endloop
  endfacet
  facet normal -0.397148 -0.917755 0
    outer loop
      vertex 0.552186 1.39466 0
      vertex 0.638668 1.35724 2.5
      vertex 0.552186 1.39466 2.5
    endloop
  endfacet
  facet normal -0.397148 -0.917755 -0
    outer loop
      vertex 0.638668 1.35724 2.5
      vertex 0.552186 1.39466 0
      vertex 0.638668 1.35724 0
    endloop
  endfacet
  facet normal 0.707107 -0.707107 0
    outer loop
      vertex -1.09345 1.02682 2.5
      vertex -1.02682 1.09345 0
      vertex -1.02682 1.09345 2.5
    endloop
  endfacet
  facet normal 0.707107 -0.707107 0
    outer loop
      vertex -1.02682 1.09345 0
      vertex -1.09345 1.02682 2.5
      vertex -1.09345 1.02682 0
    endloop
  endfacet
  facet normal 0.156432 -0.987689 0
    outer loop
      vertex -0.281072 1.47343 0
      vertex -0.188 1.48817 2.5
      vertex -0.281072 1.47343 2.5
    endloop
  endfacet
  facet normal 0.156432 -0.987689 0
    outer loop
      vertex -0.188 1.48817 2.5
      vertex -0.281072 1.47343 0
      vertex -0.188 1.48817 0
    endloop
  endfacet
  facet normal -0.940879 0.338742 0
    outer loop
      vertex 1.39466 -0.552186 0
      vertex 1.42658 -0.463525 2.5
      vertex 1.42658 -0.463525 0
    endloop
  endfacet
  facet normal -0.940879 0.338742 0
    outer loop
      vertex 1.42658 -0.463525 2.5
      vertex 1.39466 -0.552186 0
      vertex 1.39466 -0.552186 2.5
    endloop
  endfacet
  facet normal -0.397148 0.917755 0
    outer loop
      vertex 0.638668 -1.35724 0
      vertex 0.552186 -1.39466 2.5
      vertex 0.638668 -1.35724 2.5
    endloop
  endfacet
  facet normal -0.397148 0.917755 0
    outer loop
      vertex 0.552186 -1.39466 2.5
      vertex 0.638668 -1.35724 0
      vertex 0.552186 -1.39466 0
    endloop
  endfacet
  facet normal 0.707107 0.707107 0
    outer loop
      vertex -1.02682 -1.09345 2.5
      vertex -1.09345 -1.02682 0
      vertex -1.09345 -1.02682 2.5
    endloop
  endfacet
  facet normal 0.707107 0.707107 0
    outer loop
      vertex -1.09345 -1.02682 0
      vertex -1.02682 -1.09345 2.5
      vertex -1.02682 -1.09345 0
    endloop
  endfacet
  facet normal -0.975916 -0.218147 0
    outer loop
      vertex 1.47343 0.281072 0
      vertex 1.45287 0.373034 2.5
      vertex 1.45287 0.373034 0
    endloop
  endfacet
  facet normal -0.975916 -0.218147 0
    outer loop
      vertex 1.45287 0.373034 2.5
      vertex 1.47343 0.281072 0
      vertex 1.47343 0.281072 2.5
    endloop
  endfacet
  facet normal -0.960293 -0.278992 0
    outer loop
      vertex 1.45287 0.373034 0
      vertex 1.42658 0.463525 2.5
      vertex 1.42658 0.463525 0
    endloop
  endfacet
  facet normal -0.960293 -0.278992 0
    outer loop
      vertex 1.42658 0.463525 2.5
      vertex 1.45287 0.373034 0
      vertex 1.45287 0.373034 2.5
    endloop
  endfacet
  facet normal -0.790156 -0.612906 0
    outer loop
      vertex 1.21352 0.881678 0
      vertex 1.15577 0.956136 2.5
      vertex 1.15577 0.956136 0
    endloop
  endfacet
  facet normal -0.790156 -0.612906 0
    outer loop
      vertex 1.15577 0.956136 2.5
      vertex 1.21352 0.881678 0
      vertex 1.21352 0.881678 2.5
    endloop
  endfacet
  facet normal -0.827083 -0.562079 0
    outer loop
      vertex 1.26649 0.80374 0
      vertex 1.21352 0.881678 2.5
      vertex 1.21352 0.881678 0
    endloop
  endfacet
  facet normal -0.827083 -0.562079 0
    outer loop
      vertex 1.21352 0.881678 2.5
      vertex 1.26649 0.80374 0
      vertex 1.26649 0.80374 2.5
    endloop
  endfacet
  facet normal -0.562079 -0.827083 0
    outer loop
      vertex 0.80374 1.26649 0
      vertex 0.881678 1.21352 2.5
      vertex 0.80374 1.26649 2.5
    endloop
  endfacet
  facet normal -0.562079 -0.827083 -0
    outer loop
      vertex 0.881678 1.21352 2.5
      vertex 0.80374 1.26649 0
      vertex 0.881678 1.21352 0
    endloop
  endfacet
  facet normal -0.0314142 -0.999506 0
    outer loop
      vertex 0 1.5 0
      vertex 0.0941849 1.49704 2.5
      vertex 0 1.5 2.5
    endloop
  endfacet
  facet normal -0.0314142 -0.999506 -0
    outer loop
      vertex 0.0941849 1.49704 2.5
      vertex 0 1.5 0
      vertex 0.0941849 1.49704 0
    endloop
  endfacet
  facet normal -0.50905 -0.860737 0
    outer loop
      vertex 0.722631 1.31446 0
      vertex 0.80374 1.26649 2.5
      vertex 0.722631 1.31446 2.5
    endloop
  endfacet
  facet normal -0.50905 -0.860737 -0
    outer loop
      vertex 0.80374 1.26649 2.5
      vertex 0.722631 1.31446 0
      vertex 0.80374 1.26649 0
    endloop
  endfacet
  facet normal -0.338742 -0.940879 0
    outer loop
      vertex 0.463525 1.42658 0
      vertex 0.552186 1.39466 2.5
      vertex 0.463525 1.42658 2.5
    endloop
  endfacet
  facet normal -0.338742 -0.940879 -0
    outer loop
      vertex 0.552186 1.39466 2.5
      vertex 0.463525 1.42658 0
      vertex 0.552186 1.39466 0
    endloop
  endfacet
  facet normal -0.218147 -0.975916 0
    outer loop
      vertex 0.281072 1.47343 0
      vertex 0.373034 1.45287 2.5
      vertex 0.281072 1.47343 2.5
    endloop
  endfacet
  facet normal -0.218147 -0.975916 -0
    outer loop
      vertex 0.373034 1.45287 2.5
      vertex 0.281072 1.47343 0
      vertex 0.373034 1.45287 0
    endloop
  endfacet
  facet normal 0.999506 -0.0314142 0
    outer loop
      vertex -1.5 0 2.5
      vertex -1.49704 0.0941849 0
      vertex -1.49704 0.0941849 2.5
    endloop
  endfacet
  facet normal 0.999506 -0.0314142 0
    outer loop
      vertex -1.49704 0.0941849 0
      vertex -1.5 0 2.5
      vertex -1.5 0 0
    endloop
  endfacet
  facet normal 0.975916 -0.218147 0
    outer loop
      vertex -1.47343 0.281072 2.5
      vertex -1.45287 0.373034 0
      vertex -1.45287 0.373034 2.5
    endloop
  endfacet
  facet normal 0.975916 -0.218147 0
    outer loop
      vertex -1.45287 0.373034 0
      vertex -1.47343 0.281072 2.5
      vertex -1.47343 0.281072 0
    endloop
  endfacet
  facet normal 0.790156 -0.612906 0
    outer loop
      vertex -1.21352 0.881678 2.5
      vertex -1.15577 0.956136 0
      vertex -1.15577 0.956136 2.5
    endloop
  endfacet
  facet normal 0.790156 -0.612906 0
    outer loop
      vertex -1.15577 0.956136 0
      vertex -1.21352 0.881678 2.5
      vertex -1.21352 0.881678 0
    endloop
  endfacet
  facet normal 0.0314142 -0.999506 0
    outer loop
      vertex -0.0941849 1.49704 0
      vertex 0 1.5 2.5
      vertex -0.0941849 1.49704 2.5
    endloop
  endfacet
  facet normal 0.0314142 -0.999506 0
    outer loop
      vertex 0 1.5 2.5
      vertex -0.0941849 1.49704 0
      vertex 0 1.5 0
    endloop
  endfacet
  facet normal 0.50905 -0.860737 0
    outer loop
      vertex -0.80374 1.26649 0
      vertex -0.722631 1.31446 2.5
      vertex -0.80374 1.26649 2.5
    endloop
  endfacet
  facet normal 0.50905 -0.860737 0
    outer loop
      vertex -0.722631 1.31446 2.5
      vertex -0.80374 1.26649 0
      vertex -0.722631 1.31446 0
    endloop
  endfacet
  facet normal 0.562079 -0.827083 0
    outer loop
      vertex -0.881678 1.21352 0
      vertex -0.80374 1.26649 2.5
      vertex -0.881678 1.21352 2.5
    endloop
  endfacet
  facet normal 0.562079 -0.827083 0
    outer loop
      vertex -0.80374 1.26649 2.5
      vertex -0.881678 1.21352 0
      vertex -0.80374 1.26649 0
    endloop
  endfacet
  facet normal 0.453981 -0.891011 0
    outer loop
      vertex -0.722631 1.31446 0
      vertex -0.638668 1.35724 2.5
      vertex -0.722631 1.31446 2.5
    endloop
  endfacet
  facet normal 0.453981 -0.891011 0
    outer loop
      vertex -0.638668 1.35724 2.5
      vertex -0.722631 1.31446 0
      vertex -0.638668 1.35724 0
    endloop
  endfacet
  facet normal -0.999506 -0.0314142 0
    outer loop
      vertex 1.5 0 0
      vertex 1.49704 0.0941849 2.5
      vertex 1.49704 0.0941849 0
    endloop
  endfacet
  facet normal -0.999506 -0.0314142 0
    outer loop
      vertex 1.49704 0.0941849 2.5
      vertex 1.5 0 0
      vertex 1.5 0 2.5
    endloop
  endfacet
  facet normal -0.0314142 0.999506 0
    outer loop
      vertex 0.0941849 -1.49704 0
      vertex 0 -1.5 2.5
      vertex 0.0941849 -1.49704 2.5
    endloop
  endfacet
  facet normal -0.0314142 0.999506 0
    outer loop
      vertex 0 -1.5 2.5
      vertex 0.0941849 -1.49704 0
      vertex 0 -1.5 0
    endloop
  endfacet
  facet normal -0.75011 0.661313 0
    outer loop
      vertex 1.09345 -1.02682 0
      vertex 1.15577 -0.956136 2.5
      vertex 1.15577 -0.956136 0
    endloop
  endfacet
  facet normal -0.75011 0.661313 0
    outer loop
      vertex 1.15577 -0.956136 2.5
      vertex 1.09345 -1.02682 0
      vertex 1.09345 -1.02682 2.5
    endloop
  endfacet
  facet normal -0.612906 0.790156 0
    outer loop
      vertex 0.956136 -1.15577 0
      vertex 0.881678 -1.21352 2.5
      vertex 0.956136 -1.15577 2.5
    endloop
  endfacet
  facet normal -0.612906 0.790156 0
    outer loop
      vertex 0.881678 -1.21352 2.5
      vertex 0.956136 -1.15577 0
      vertex 0.881678 -1.21352 0
    endloop
  endfacet
  facet normal -0.453981 0.891011 0
    outer loop
      vertex 0.722631 -1.31446 0
      vertex 0.638668 -1.35724 2.5
      vertex 0.722631 -1.31446 2.5
    endloop
  endfacet
  facet normal -0.453981 0.891011 0
    outer loop
      vertex 0.638668 -1.35724 2.5
      vertex 0.722631 -1.31446 0
      vertex 0.638668 -1.35724 0
    endloop
  endfacet
  facet normal 0.999506 0.0314142 0
    outer loop
      vertex -1.49704 -0.0941849 2.5
      vertex -1.5 0 0
      vertex -1.5 0 2.5
    endloop
  endfacet
  facet normal 0.999506 0.0314142 0
    outer loop
      vertex -1.5 0 0
      vertex -1.49704 -0.0941849 2.5
      vertex -1.49704 -0.0941849 0
    endloop
  endfacet
  facet normal 0.827083 0.562079 0
    outer loop
      vertex -1.21352 -0.881678 2.5
      vertex -1.26649 -0.80374 0
      vertex -1.26649 -0.80374 2.5
    endloop
  endfacet
  facet normal 0.827083 0.562079 0
    outer loop
      vertex -1.26649 -0.80374 0
      vertex -1.21352 -0.881678 2.5
      vertex -1.21352 -0.881678 0
    endloop
  endfacet
  facet normal 0.790156 0.612906 0
    outer loop
      vertex -1.15577 -0.956136 2.5
      vertex -1.21352 -0.881678 0
      vertex -1.21352 -0.881678 2.5
    endloop
  endfacet
  facet normal 0.790156 0.612906 0
    outer loop
      vertex -1.21352 -0.881678 0
      vertex -1.15577 -0.956136 2.5
      vertex -1.15577 -0.956136 0
    endloop
  endfacet
  facet normal -0.987689 -0.156432 0
    outer loop
      vertex 1.48817 0.188 0
      vertex 1.47343 0.281072 2.5
      vertex 1.47343 0.281072 0
    endloop
  endfacet
  facet normal -0.987689 -0.156432 0
    outer loop
      vertex 1.47343 0.281072 2.5
      vertex 1.48817 0.188 0
      vertex 1.48817 0.188 2.5
    endloop
  endfacet
  facet normal -0.995562 -0.0941094 0
    outer loop
      vertex 1.49704 0.0941849 0
      vertex 1.48817 0.188 2.5
      vertex 1.48817 0.188 0
    endloop
  endfacet
  facet normal -0.995562 -0.0941094 0
    outer loop
      vertex 1.48817 0.188 2.5
      vertex 1.49704 0.0941849 0
      vertex 1.49704 0.0941849 2.5
    endloop
  endfacet
  facet normal -0.917755 -0.397148 0
    outer loop
      vertex 1.39466 0.552186 0
      vertex 1.35724 0.638668 2.5
      vertex 1.35724 0.638668 0
    endloop
  endfacet
  facet normal -0.917755 -0.397148 0
    outer loop
      vertex 1.35724 0.638668 2.5
      vertex 1.39466 0.552186 0
      vertex 1.39466 0.552186 2.5
    endloop
  endfacet
  facet normal -0.940879 -0.338742 0
    outer loop
      vertex 1.42658 0.463525 0
      vertex 1.39466 0.552186 2.5
      vertex 1.39466 0.552186 0
    endloop
  endfacet
  facet normal -0.940879 -0.338742 0
    outer loop
      vertex 1.39466 0.552186 2.5
      vertex 1.42658 0.463525 0
      vertex 1.42658 0.463525 2.5
    endloop
  endfacet
  facet normal -0.75011 -0.661313 0
    outer loop
      vertex 1.15577 0.956136 0
      vertex 1.09345 1.02682 2.5
      vertex 1.09345 1.02682 0
    endloop
  endfacet
  facet normal -0.75011 -0.661313 0
    outer loop
      vertex 1.09345 1.02682 2.5
      vertex 1.15577 0.956136 0
      vertex 1.15577 0.956136 2.5
    endloop
  endfacet
  facet normal -0.707107 -0.707107 0
    outer loop
      vertex 1.09345 1.02682 0
      vertex 1.02682 1.09345 2.5
      vertex 1.02682 1.09345 0
    endloop
  endfacet
  facet normal -0.707107 -0.707107 0
    outer loop
      vertex 1.02682 1.09345 2.5
      vertex 1.09345 1.02682 0
      vertex 1.09345 1.02682 2.5
    endloop
  endfacet
  facet normal -0.612906 -0.790156 0
    outer loop
      vertex 0.881678 1.21352 0
      vertex 0.956136 1.15577 2.5
      vertex 0.881678 1.21352 2.5
    endloop
  endfacet
  facet normal -0.612906 -0.790156 -0
    outer loop
      vertex 0.956136 1.15577 2.5
      vertex 0.881678 1.21352 0
      vertex 0.956136 1.15577 0
    endloop
  endfacet
  facet normal -0.453981 -0.891011 0
    outer loop
      vertex 0.638668 1.35724 0
      vertex 0.722631 1.31446 2.5
      vertex 0.638668 1.35724 2.5
    endloop
  endfacet
  facet normal -0.453981 -0.891011 -0
    outer loop
      vertex 0.722631 1.31446 2.5
      vertex 0.638668 1.35724 0
      vertex 0.722631 1.31446 0
    endloop
  endfacet
  facet normal -0.0941094 -0.995562 0
    outer loop
      vertex 0.0941849 1.49704 0
      vertex 0.188 1.48817 2.5
      vertex 0.0941849 1.49704 2.5
    endloop
  endfacet
  facet normal -0.0941094 -0.995562 -0
    outer loop
      vertex 0.188 1.48817 2.5
      vertex 0.0941849 1.49704 0
      vertex 0.188 1.48817 0
    endloop
  endfacet
  facet normal -0.278992 -0.960293 0
    outer loop
      vertex 0.373034 1.45287 0
      vertex 0.463525 1.42658 2.5
      vertex 0.373034 1.45287 2.5
    endloop
  endfacet
  facet normal -0.278992 -0.960293 -0
    outer loop
      vertex 0.463525 1.42658 2.5
      vertex 0.373034 1.45287 0
      vertex 0.463525 1.42658 0
    endloop
  endfacet
  facet normal 0.940879 -0.338742 0
    outer loop
      vertex -1.42658 0.463525 2.5
      vertex -1.39466 0.552186 0
      vertex -1.39466 0.552186 2.5
    endloop
  endfacet
  facet normal 0.940879 -0.338742 0
    outer loop
      vertex -1.39466 0.552186 0
      vertex -1.42658 0.463525 2.5
      vertex -1.42658 0.463525 0
    endloop
  endfacet
  facet normal 0.917755 -0.397148 0
    outer loop
      vertex -1.39466 0.552186 2.5
      vertex -1.35724 0.638668 0
      vertex -1.35724 0.638668 2.5
    endloop
  endfacet
  facet normal 0.917755 -0.397148 0
    outer loop
      vertex -1.35724 0.638668 0
      vertex -1.39466 0.552186 2.5
      vertex -1.39466 0.552186 0
    endloop
  endfacet
  facet normal 0.995562 -0.0941094 0
    outer loop
      vertex -1.49704 0.0941849 2.5
      vertex -1.48817 0.188 0
      vertex -1.48817 0.188 2.5
    endloop
  endfacet
  facet normal 0.995562 -0.0941094 0
    outer loop
      vertex -1.48817 0.188 0
      vertex -1.49704 0.0941849 2.5
      vertex -1.49704 0.0941849 0
    endloop
  endfacet
  facet normal 0.960293 -0.278992 0
    outer loop
      vertex -1.45287 0.373034 2.5
      vertex -1.42658 0.463525 0
      vertex -1.42658 0.463525 2.5
    endloop
  endfacet
  facet normal 0.960293 -0.278992 0
    outer loop
      vertex -1.42658 0.463525 0
      vertex -1.45287 0.373034 2.5
      vertex -1.45287 0.373034 0
    endloop
  endfacet
  facet normal 0.860737 -0.50905 0
    outer loop
      vertex -1.31446 0.722631 2.5
      vertex -1.26649 0.80374 0
      vertex -1.26649 0.80374 2.5
    endloop
  endfacet
  facet normal 0.860737 -0.50905 0
    outer loop
      vertex -1.26649 0.80374 0
      vertex -1.31446 0.722631 2.5
      vertex -1.31446 0.722631 0
    endloop
  endfacet
  facet normal 0.75011 -0.661313 0
    outer loop
      vertex -1.15577 0.956136 2.5
      vertex -1.09345 1.02682 0
      vertex -1.09345 1.02682 2.5
    endloop
  endfacet
  facet normal 0.75011 -0.661313 0
    outer loop
      vertex -1.09345 1.02682 0
      vertex -1.15577 0.956136 2.5
      vertex -1.15577 0.956136 0
    endloop
  endfacet
  facet normal 0.218147 -0.975916 0
    outer loop
      vertex -0.373034 1.45287 0
      vertex -0.281072 1.47343 2.5
      vertex -0.373034 1.45287 2.5
    endloop
  endfacet
  facet normal 0.218147 -0.975916 0
    outer loop
      vertex -0.281072 1.47343 2.5
      vertex -0.373034 1.45287 0
      vertex -0.281072 1.47343 0
    endloop
  endfacet
  facet normal 0.278992 -0.960293 0
    outer loop
      vertex -0.463525 1.42658 0
      vertex -0.373034 1.45287 2.5
      vertex -0.463525 1.42658 2.5
    endloop
  endfacet
  facet normal 0.278992 -0.960293 0
    outer loop
      vertex -0.373034 1.45287 2.5
      vertex -0.463525 1.42658 0
      vertex -0.373034 1.45287 0
    endloop
  endfacet
  facet normal 0.397148 -0.917755 0
    outer loop
      vertex -0.638668 1.35724 0
      vertex -0.552186 1.39466 2.5
      vertex -0.638668 1.35724 2.5
    endloop
  endfacet
  facet normal 0.397148 -0.917755 0
    outer loop
      vertex -0.552186 1.39466 2.5
      vertex -0.638668 1.35724 0
      vertex -0.552186 1.39466 0
    endloop
  endfacet
  facet normal 0.612906 -0.790156 0
    outer loop
      vertex -0.956136 1.15577 0
      vertex -0.881678 1.21352 2.5
      vertex -0.956136 1.15577 2.5
    endloop
  endfacet
  facet normal 0.612906 -0.790156 0
    outer loop
      vertex -0.881678 1.21352 2.5
      vertex -0.956136 1.15577 0
      vertex -0.881678 1.21352 0
    endloop
  endfacet
  facet normal 0.661313 -0.75011 0
    outer loop
      vertex -1.02682 1.09345 0
      vertex -0.956136 1.15577 2.5
      vertex -1.02682 1.09345 2.5
    endloop
  endfacet
  facet normal 0.661313 -0.75011 0
    outer loop
      vertex -0.956136 1.15577 2.5
      vertex -1.02682 1.09345 0
      vertex -0.956136 1.15577 0
    endloop
  endfacet
  facet normal -0.995562 0.0941094 0
    outer loop
      vertex 1.48817 -0.188 0
      vertex 1.49704 -0.0941849 2.5
      vertex 1.49704 -0.0941849 0
    endloop
  endfacet
  facet normal -0.995562 0.0941094 0
    outer loop
      vertex 1.49704 -0.0941849 2.5
      vertex 1.48817 -0.188 0
      vertex 1.48817 -0.188 2.5
    endloop
  endfacet
  facet normal -0.999506 0.0314142 0
    outer loop
      vertex 1.49704 -0.0941849 0
      vertex 1.5 0 2.5
      vertex 1.5 0 0
    endloop
  endfacet
  facet normal -0.999506 0.0314142 0
    outer loop
      vertex 1.5 0 2.5
      vertex 1.49704 -0.0941849 0
      vertex 1.49704 -0.0941849 2.5
    endloop
  endfacet
  facet normal -0.987689 0.156432 0
    outer loop
      vertex 1.47343 -0.281072 0
      vertex 1.48817 -0.188 2.5
      vertex 1.48817 -0.188 0
    endloop
  endfacet
  facet normal -0.987689 0.156432 0
    outer loop
      vertex 1.48817 -0.188 2.5
      vertex 1.47343 -0.281072 0
      vertex 1.47343 -0.281072 2.5
    endloop
  endfacet
  facet normal -0.0941094 0.995562 0
    outer loop
      vertex 0.188 -1.48817 0
      vertex 0.0941849 -1.49704 2.5
      vertex 0.188 -1.48817 2.5
    endloop
  endfacet
  facet normal -0.0941094 0.995562 0
    outer loop
      vertex 0.0941849 -1.49704 2.5
      vertex 0.188 -1.48817 0
      vertex 0.0941849 -1.49704 0
    endloop
  endfacet
  facet normal -0.278992 0.960293 0
    outer loop
      vertex 0.463525 -1.42658 0
      vertex 0.373034 -1.45287 2.5
      vertex 0.463525 -1.42658 2.5
    endloop
  endfacet
  facet normal -0.278992 0.960293 0
    outer loop
      vertex 0.373034 -1.45287 2.5
      vertex 0.463525 -1.42658 0
      vertex 0.373034 -1.45287 0
    endloop
  endfacet
  facet normal -0.338742 0.940879 0
    outer loop
      vertex 0.552186 -1.39466 0
      vertex 0.463525 -1.42658 2.5
      vertex 0.552186 -1.39466 2.5
    endloop
  endfacet
  facet normal -0.338742 0.940879 0
    outer loop
      vertex 0.463525 -1.42658 2.5
      vertex 0.552186 -1.39466 0
      vertex 0.463525 -1.42658 0
    endloop
  endfacet
  facet normal -0.218147 0.975916 0
    outer loop
      vertex 0.373034 -1.45287 0
      vertex 0.281072 -1.47343 2.5
      vertex 0.373034 -1.45287 2.5
    endloop
  endfacet
  facet normal -0.218147 0.975916 0
    outer loop
      vertex 0.281072 -1.47343 2.5
      vertex 0.373034 -1.45287 0
      vertex 0.281072 -1.47343 0
    endloop
  endfacet
  facet normal -0.707107 0.707107 0
    outer loop
      vertex 1.02682 -1.09345 0
      vertex 1.09345 -1.02682 2.5
      vertex 1.09345 -1.02682 0
    endloop
  endfacet
  facet normal -0.707107 0.707107 0
    outer loop
      vertex 1.09345 -1.02682 2.5
      vertex 1.02682 -1.09345 0
      vertex 1.02682 -1.09345 2.5
    endloop
  endfacet
  facet normal -0.661313 0.75011 0
    outer loop
      vertex 1.02682 -1.09345 0
      vertex 0.956136 -1.15577 2.5
      vertex 1.02682 -1.09345 2.5
    endloop
  endfacet
  facet normal -0.661313 0.75011 0
    outer loop
      vertex 0.956136 -1.15577 2.5
      vertex 1.02682 -1.09345 0
      vertex 0.956136 -1.15577 0
    endloop
  endfacet
  facet normal -0.50905 0.860737 0
    outer loop
      vertex 0.80374 -1.26649 0
      vertex 0.722631 -1.31446 2.5
      vertex 0.80374 -1.26649 2.5
    endloop
  endfacet
  facet normal -0.50905 0.860737 0
    outer loop
      vertex 0.722631 -1.31446 2.5
      vertex 0.80374 -1.26649 0
      vertex 0.722631 -1.31446 0
    endloop
  endfacet
  facet normal -0.562079 0.827083 0
    outer loop
      vertex 0.881678 -1.21352 0
      vertex 0.80374 -1.26649 2.5
      vertex 0.881678 -1.21352 2.5
    endloop
  endfacet
  facet normal -0.562079 0.827083 0
    outer loop
      vertex 0.80374 -1.26649 2.5
      vertex 0.881678 -1.21352 0
      vertex 0.80374 -1.26649 0
    endloop
  endfacet
  facet normal 0.397148 0.917755 -0
    outer loop
      vertex -0.552186 -1.39466 0
      vertex -0.638668 -1.35724 2.5
      vertex -0.552186 -1.39466 2.5
    endloop
  endfacet
  facet normal 0.397148 0.917755 0
    outer loop
      vertex -0.638668 -1.35724 2.5
      vertex -0.552186 -1.39466 0
      vertex -0.638668 -1.35724 0
    endloop
  endfacet
  facet normal 0.0941094 0.995562 -0
    outer loop
      vertex -0.0941849 -1.49704 0
      vertex -0.188 -1.48817 2.5
      vertex -0.0941849 -1.49704 2.5
    endloop
  endfacet
  facet normal 0.0941094 0.995562 0
    outer loop
      vertex -0.188 -1.48817 2.5
      vertex -0.0941849 -1.49704 0
      vertex -0.188 -1.48817 0
    endloop
  endfacet
  facet normal 0.156432 0.987689 -0
    outer loop
      vertex -0.188 -1.48817 0
      vertex -0.281072 -1.47343 2.5
      vertex -0.188 -1.48817 2.5
    endloop
  endfacet
  facet normal 0.156432 0.987689 0
    outer loop
      vertex -0.281072 -1.47343 2.5
      vertex -0.188 -1.48817 0
      vertex -0.281072 -1.47343 0
    endloop
  endfacet
  facet normal 0.0314142 0.999506 -0
    outer loop
      vertex 0 -1.5 0
      vertex -0.0941849 -1.49704 2.5
      vertex 0 -1.5 2.5
    endloop
  endfacet
  facet normal 0.0314142 0.999506 0
    outer loop
      vertex -0.0941849 -1.49704 2.5
      vertex 0 -1.5 0
      vertex -0.0941849 -1.49704 0
    endloop
  endfacet
  facet normal 0.278992 0.960293 -0
    outer loop
      vertex -0.373034 -1.45287 0
      vertex -0.463525 -1.42658 2.5
      vertex -0.373034 -1.45287 2.5
    endloop
  endfacet
  facet normal 0.278992 0.960293 0
    outer loop
      vertex -0.463525 -1.42658 2.5
      vertex -0.373034 -1.45287 0
      vertex -0.463525 -1.42658 0
    endloop
  endfacet
  facet normal 0.50905 0.860737 -0
    outer loop
      vertex -0.722631 -1.31446 0
      vertex -0.80374 -1.26649 2.5
      vertex -0.722631 -1.31446 2.5
    endloop
  endfacet
  facet normal 0.50905 0.860737 0
    outer loop
      vertex -0.80374 -1.26649 2.5
      vertex -0.722631 -1.31446 0
      vertex -0.80374 -1.26649 0
    endloop
  endfacet
  facet normal 0.562079 0.827083 -0
    outer loop
      vertex -0.80374 -1.26649 0
      vertex -0.881678 -1.21352 2.5
      vertex -0.80374 -1.26649 2.5
    endloop
  endfacet
  facet normal 0.562079 0.827083 0
    outer loop
      vertex -0.881678 -1.21352 2.5
      vertex -0.80374 -1.26649 0
      vertex -0.881678 -1.21352 0
    endloop
  endfacet
  facet normal 0.453981 0.891011 -0
    outer loop
      vertex -0.638668 -1.35724 0
      vertex -0.722631 -1.31446 2.5
      vertex -0.638668 -1.35724 2.5
    endloop
  endfacet
  facet normal 0.453981 0.891011 0
    outer loop
      vertex -0.722631 -1.31446 2.5
      vertex -0.638668 -1.35724 0
      vertex -0.722631 -1.31446 0
    endloop
  endfacet
  facet normal 0.612906 0.790156 -0
    outer loop
      vertex -0.881678 -1.21352 0
      vertex -0.956136 -1.15577 2.5
      vertex -0.881678 -1.21352 2.5
    endloop
  endfacet
  facet normal 0.612906 0.790156 0
    outer loop
      vertex -0.956136 -1.15577 2.5
      vertex -0.881678 -1.21352 0
      vertex -0.956136 -1.15577 0
    endloop
  endfacet
  facet normal 0.940879 0.338742 0
    outer loop
      vertex -1.39466 -0.552186 2.5
      vertex -1.42658 -0.463525 0
      vertex -1.42658 -0.463525 2.5
    endloop
  endfacet
  facet normal 0.940879 0.338742 0
    outer loop
      vertex -1.42658 -0.463525 0
      vertex -1.39466 -0.552186 2.5
      vertex -1.39466 -0.552186 0
    endloop
  endfacet
  facet normal 0.975916 0.218147 0
    outer loop
      vertex -1.45287 -0.373034 2.5
      vertex -1.47343 -0.281072 0
      vertex -1.47343 -0.281072 2.5
    endloop
  endfacet
  facet normal 0.975916 0.218147 0
    outer loop
      vertex -1.47343 -0.281072 0
      vertex -1.45287 -0.373034 2.5
      vertex -1.45287 -0.373034 0
    endloop
  endfacet
  facet normal 0.960293 0.278992 0
    outer loop
      vertex -1.42658 -0.463525 2.5
      vertex -1.45287 -0.373034 0
      vertex -1.45287 -0.373034 2.5
    endloop
  endfacet
  facet normal 0.960293 0.278992 0
    outer loop
      vertex -1.45287 -0.373034 0
      vertex -1.42658 -0.463525 2.5
      vertex -1.42658 -0.463525 0
    endloop
  endfacet
  facet normal 0.995562 0.0941094 0
    outer loop
      vertex -1.48817 -0.188 2.5
      vertex -1.49704 -0.0941849 0
      vertex -1.49704 -0.0941849 2.5
    endloop
  endfacet
  facet normal 0.995562 0.0941094 0
    outer loop
      vertex -1.49704 -0.0941849 0
      vertex -1.48817 -0.188 2.5
      vertex -1.48817 -0.188 0
    endloop
  endfacet
  facet normal 0.917755 0.397148 0
    outer loop
      vertex -1.35724 -0.638668 2.5
      vertex -1.39466 -0.552186 0
      vertex -1.39466 -0.552186 2.5
    endloop
  endfacet
  facet normal 0.917755 0.397148 0
    outer loop
      vertex -1.39466 -0.552186 0
      vertex -1.35724 -0.638668 2.5
      vertex -1.35724 -0.638668 0
    endloop
  endfacet
  facet normal 0.860737 0.50905 0
    outer loop
      vertex -1.26649 -0.80374 2.5
      vertex -1.31446 -0.722631 0
      vertex -1.31446 -0.722631 2.5
    endloop
  endfacet
  facet normal 0.860737 0.50905 0
    outer loop
      vertex -1.31446 -0.722631 0
      vertex -1.26649 -0.80374 2.5
      vertex -1.26649 -0.80374 0
    endloop
  endfacet
  facet normal 0.891011 0.453981 0
    outer loop
      vertex -1.31446 -0.722631 2.5
      vertex -1.35724 -0.638668 0
      vertex -1.35724 -0.638668 2.5
    endloop
  endfacet
  facet normal 0.891011 0.453981 0
    outer loop
      vertex -1.35724 -0.638668 0
      vertex -1.31446 -0.722631 2.5
      vertex -1.31446 -0.722631 0
    endloop
  endfacet
  facet normal -0.860737 -0.50905 0
    outer loop
      vertex 1.31446 0.722631 0
      vertex 1.26649 0.80374 2.5
      vertex 1.26649 0.80374 0
    endloop
  endfacet
  facet normal -0.860737 -0.50905 0
    outer loop
      vertex 1.26649 0.80374 2.5
      vertex 1.31446 0.722631 0
      vertex 1.31446 0.722631 2.5
    endloop
  endfacet
  facet normal -0.156432 -0.987689 0
    outer loop
      vertex 0.188 1.48817 0
      vertex 0.281072 1.47343 2.5
      vertex 0.188 1.48817 2.5
    endloop
  endfacet
  facet normal -0.156432 -0.987689 -0
    outer loop
      vertex 0.281072 1.47343 2.5
      vertex 0.188 1.48817 0
      vertex 0.281072 1.47343 0
    endloop
  endfacet
  facet normal 0.987689 -0.156432 0
    outer loop
      vertex -1.48817 0.188 2.5
      vertex -1.47343 0.281072 0
      vertex -1.47343 0.281072 2.5
    endloop
  endfacet
  facet normal 0.987689 -0.156432 0
    outer loop
      vertex -1.47343 0.281072 0
      vertex -1.48817 0.188 2.5
      vertex -1.48817 0.188 0
    endloop
  endfacet
  facet normal 0.827083 -0.562079 0
    outer loop
      vertex -1.26649 0.80374 2.5
      vertex -1.21352 0.881678 0
      vertex -1.21352 0.881678 2.5
    endloop
  endfacet
  facet normal 0.827083 -0.562079 0
    outer loop
      vertex -1.21352 0.881678 0
      vertex -1.26649 0.80374 2.5
      vertex -1.26649 0.80374 0
    endloop
  endfacet
  facet normal 0.0941094 -0.995562 0
    outer loop
      vertex -0.188 1.48817 0
      vertex -0.0941849 1.49704 2.5
      vertex -0.188 1.48817 2.5
    endloop
  endfacet
  facet normal 0.0941094 -0.995562 0
    outer loop
      vertex -0.0941849 1.49704 2.5
      vertex -0.188 1.48817 0
      vertex -0.0941849 1.49704 0
    endloop
  endfacet
  facet normal -0.975916 0.218147 0
    outer loop
      vertex 1.45287 -0.373034 0
      vertex 1.47343 -0.281072 2.5
      vertex 1.47343 -0.281072 0
    endloop
  endfacet
  facet normal -0.975916 0.218147 0
    outer loop
      vertex 1.47343 -0.281072 2.5
      vertex 1.45287 -0.373034 0
      vertex 1.45287 -0.373034 2.5
    endloop
  endfacet
  facet normal -0.960293 0.278992 0
    outer loop
      vertex 1.42658 -0.463525 0
      vertex 1.45287 -0.373034 2.5
      vertex 1.45287 -0.373034 0
    endloop
  endfacet
  facet normal -0.960293 0.278992 0
    outer loop
      vertex 1.45287 -0.373034 2.5
      vertex 1.42658 -0.463525 0
      vertex 1.42658 -0.463525 2.5
    endloop
  endfacet
  facet normal -0.827083 0.562079 0
    outer loop
      vertex 1.21352 -0.881678 0
      vertex 1.26649 -0.80374 2.5
      vertex 1.26649 -0.80374 0
    endloop
  endfacet
  facet normal -0.827083 0.562079 0
    outer loop
      vertex 1.26649 -0.80374 2.5
      vertex 1.21352 -0.881678 0
      vertex 1.21352 -0.881678 2.5
    endloop
  endfacet
  facet normal -0.156432 0.987689 0
    outer loop
      vertex 0.281072 -1.47343 0
      vertex 0.188 -1.48817 2.5
      vertex 0.281072 -1.47343 2.5
    endloop
  endfacet
  facet normal -0.156432 0.987689 0
    outer loop
      vertex 0.188 -1.48817 2.5
      vertex 0.281072 -1.47343 0
      vertex 0.188 -1.48817 0
    endloop
  endfacet
  facet normal 0.338742 0.940879 -0
    outer loop
      vertex -0.463525 -1.42658 0
      vertex -0.552186 -1.39466 2.5
      vertex -0.463525 -1.42658 2.5
    endloop
  endfacet
  facet normal 0.338742 0.940879 0
    outer loop
      vertex -0.552186 -1.39466 2.5
      vertex -0.463525 -1.42658 0
      vertex -0.552186 -1.39466 0
    endloop
  endfacet
  facet normal 0.218147 0.975916 -0
    outer loop
      vertex -0.281072 -1.47343 0
      vertex -0.373034 -1.45287 2.5
      vertex -0.281072 -1.47343 2.5
    endloop
  endfacet
  facet normal 0.218147 0.975916 0
    outer loop
      vertex -0.373034 -1.45287 2.5
      vertex -0.281072 -1.47343 0
      vertex -0.373034 -1.45287 0
    endloop
  endfacet
  facet normal 0.661313 0.75011 -0
    outer loop
      vertex -0.956136 -1.15577 0
      vertex -1.02682 -1.09345 2.5
      vertex -0.956136 -1.15577 2.5
    endloop
  endfacet
  facet normal 0.661313 0.75011 0
    outer loop
      vertex -1.02682 -1.09345 2.5
      vertex -0.956136 -1.15577 0
      vertex -1.02682 -1.09345 0
    endloop
  endfacet
  facet normal 0.987689 0.156432 0
    outer loop
      vertex -1.47343 -0.281072 2.5
      vertex -1.48817 -0.188 0
      vertex -1.48817 -0.188 2.5
    endloop
  endfacet
  facet normal 0.987689 0.156432 0
    outer loop
      vertex -1.48817 -0.188 0
      vertex -1.47343 -0.281072 2.5
      vertex -1.47343 -0.281072 0
    endloop
  endfacet
  facet normal 0.75011 0.661313 0
    outer loop
      vertex -1.09345 -1.02682 2.5
      vertex -1.15577 -0.956136 0
      vertex -1.15577 -0.956136 2.5
    endloop
  endfacet
  facet normal 0.75011 0.661313 0
    outer loop
      vertex -1.15577 -0.956136 0
      vertex -1.09345 -1.02682 2.5
      vertex -1.09345 -1.02682 0
    endloop
  endfacet
  facet normal -0.891011 0.453981 0
    outer loop
      vertex 1.31446 -0.722631 0
      vertex 1.35724 -0.638668 2.5
      vertex 1.35724 -0.638668 0
    endloop
  endfacet
  facet normal -0.891011 0.453981 0
    outer loop
      vertex 1.35724 -0.638668 2.5
      vertex 1.31446 -0.722631 0
      vertex 1.31446 -0.722631 2.5
    endloop
  endfacet
  facet normal -0.790156 0.612906 0
    outer loop
      vertex 1.15577 -0.956136 0
      vertex 1.21352 -0.881678 2.5
      vertex 1.21352 -0.881678 0
    endloop
  endfacet
  facet normal -0.790156 0.612906 0
    outer loop
      vertex 1.21352 -0.881678 2.5
      vertex 1.15577 -0.956136 0
      vertex 1.15577 -0.956136 2.5
    endloop
  endfacet
  facet normal -0.860737 0.50905 0
    outer loop
      vertex 1.26649 -0.80374 0
      vertex 1.31446 -0.722631 2.5
      vertex 1.31446 -0.722631 0
    endloop
  endfacet
  facet normal -0.860737 0.50905 0
    outer loop
      vertex 1.31446 -0.722631 2.5
      vertex 1.26649 -0.80374 0
      vertex 1.26649 -0.80374 2.5
    endloop
  endfacet
  facet normal -0.917755 0.397148 0
    outer loop
      vertex 1.35724 -0.638668 0
      vertex 1.39466 -0.552186 2.5
      vertex 1.39466 -0.552186 0
    endloop
  endfacet
  facet normal -0.917755 0.397148 0
    outer loop
      vertex 1.39466 -0.552186 2.5
      vertex 1.35724 -0.638668 0
      vertex 1.35724 -0.638668 2.5
    endloop
  endfacet
  facet normal -0.866025 -0.5 0
    outer loop
      vertex 3.25 0 2.5
      vertex 1.625 2.81458 5
      vertex 1.625 2.81458 2.5
    endloop
  endfacet
  facet normal -0.866025 -0.5 0
    outer loop
      vertex 1.625 2.81458 5
      vertex 3.25 0 2.5
      vertex 3.25 0 5
    endloop
  endfacet
  facet normal 0.866025 -0.5 0
    outer loop
      vertex -3.25 0 5
      vertex -1.625 2.81458 2.5
      vertex -1.625 2.81458 5
    endloop
  endfacet
  facet normal 0.866025 -0.5 0
    outer loop
      vertex -1.625 2.81458 2.5
      vertex -3.25 0 5
      vertex -3.25 0 2.5
    endloop
  endfacet
  facet normal 0 -1 0
    outer loop
      vertex -1.625 2.81458 2.5
      vertex 1.625 2.81458 5
      vertex -1.625 2.81458 5
    endloop
  endfacet
  facet normal 0 -1 -0
    outer loop
      vertex 1.625 2.81458 5
      vertex -1.625 2.81458 2.5
      vertex 1.625 2.81458 2.5
    endloop
  endfacet
  facet normal -0.866025 0.5 0
    outer loop
      vertex 1.625 -2.81458 2.5
      vertex 3.25 0 5
      vertex 3.25 0 2.5
    endloop
  endfacet
  facet normal -0.866025 0.5 0
    outer loop
      vertex 3.25 0 5
      vertex 1.625 -2.81458 2.5
      vertex 1.625 -2.81458 5
    endloop
  endfacet
  facet normal -0 0 1
    outer loop
      vertex 1.31446 0.722631 2.5
      vertex 3.25 0 2.5
      vertex 1.625 2.81458 2.5
    endloop
  endfacet
  facet normal 0 0 1
    outer loop
      vertex 1.49704 -0.0941849 2.5
      vertex 3.25 0 2.5
      vertex 1.5 0 2.5
    endloop
  endfacet
  facet normal 0 0 1
    outer loop
      vertex 3.25 0 2.5
      vertex 1.49704 0.0941849 2.5
      vertex 1.5 0 2.5
    endloop
  endfacet
  facet normal 0 0 1
    outer loop
      vertex 3.25 0 2.5
      vertex 1.48817 0.188 2.5
      vertex 1.49704 0.0941849 2.5
    endloop
  endfacet
  facet normal 0 0 1
    outer loop
      vertex 3.25 0 2.5
      vertex 1.47343 0.281072 2.5
      vertex 1.48817 0.188 2.5
    endloop
  endfacet
  facet normal 0 0 1
    outer loop
      vertex 3.25 0 2.5
      vertex 1.45287 0.373034 2.5
      vertex 1.47343 0.281072 2.5
    endloop
  endfacet
  facet normal 0 0 1
    outer loop
      vertex 3.25 0 2.5
      vertex 1.42658 0.463525 2.5
      vertex 1.45287 0.373034 2.5
    endloop
  endfacet
  facet normal 0 0 1
    outer loop
      vertex 3.25 0 2.5
      vertex 1.39466 0.552186 2.5
      vertex 1.42658 0.463525 2.5
    endloop
  endfacet
  facet normal 0 0 1
    outer loop
      vertex 3.25 0 2.5
      vertex 1.35724 0.638668 2.5
      vertex 1.39466 0.552186 2.5
    endloop
  endfacet
  facet normal 0 0 1
    outer loop
      vertex 3.25 0 2.5
      vertex 1.31446 0.722631 2.5
      vertex 1.35724 0.638668 2.5
    endloop
  endfacet
  facet normal 0 0 1
    outer loop
      vertex 1.625 2.81458 2.5
      vertex 1.26649 0.80374 2.5
      vertex 1.31446 0.722631 2.5
    endloop
  endfacet
  facet normal 0 0 1
    outer loop
      vertex 1.625 2.81458 2.5
      vertex 1.21352 0.881678 2.5
      vertex 1.26649 0.80374 2.5
    endloop
  endfacet
  facet normal 0 0 1
    outer loop
      vertex 1.625 2.81458 2.5
      vertex 1.15577 0.956136 2.5
      vertex 1.21352 0.881678 2.5
    endloop
  endfacet
  facet normal 0 0 1
    outer loop
      vertex 1.625 2.81458 2.5
      vertex 1.09345 1.02682 2.5
      vertex 1.15577 0.956136 2.5
    endloop
  endfacet
  facet normal 0 0 1
    outer loop
      vertex 1.625 2.81458 2.5
      vertex 1.02682 1.09345 2.5
      vertex 1.09345 1.02682 2.5
    endloop
  endfacet
  facet normal 0 0 1
    outer loop
      vertex 1.625 2.81458 2.5
      vertex 0.956136 1.15577 2.5
      vertex 1.02682 1.09345 2.5
    endloop
  endfacet
  facet normal 0 0 1
    outer loop
      vertex 1.625 2.81458 2.5
      vertex 0.881678 1.21352 2.5
      vertex 0.956136 1.15577 2.5
    endloop
  endfacet
  facet normal 0 0 1
    outer loop
      vertex 1.625 2.81458 2.5
      vertex 0.80374 1.26649 2.5
      vertex 0.881678 1.21352 2.5
    endloop
  endfacet
  facet normal 0 0 1
    outer loop
      vertex 1.625 2.81458 2.5
      vertex 0.722631 1.31446 2.5
      vertex 0.80374 1.26649 2.5
    endloop
  endfacet
  facet normal 0 0 1
    outer loop
      vertex 1.625 2.81458 2.5
      vertex 0.638668 1.35724 2.5
      vertex 0.722631 1.31446 2.5
    endloop
  endfacet
  facet normal 0 0 1
    outer loop
      vertex 1.625 2.81458 2.5
      vertex 0.552186 1.39466 2.5
      vertex 0.638668 1.35724 2.5
    endloop
  endfacet
  facet normal 0 0 1
    outer loop
      vertex 1.625 2.81458 2.5
      vertex 0.463525 1.42658 2.5
      vertex 0.552186 1.39466 2.5
    endloop
  endfacet
  facet normal 0 0 1
    outer loop
      vertex 1.625 2.81458 2.5
      vertex 0.373034 1.45287 2.5
      vertex 0.463525 1.42658 2.5
    endloop
  endfacet
  facet normal 0 0 1
    outer loop
      vertex 1.625 2.81458 2.5
      vertex 0.281072 1.47343 2.5
      vertex 0.373034 1.45287 2.5
    endloop
  endfacet
  facet normal 0 0 1
    outer loop
      vertex 1.625 2.81458 2.5
      vertex 0.188 1.48817 2.5
      vertex 0.281072 1.47343 2.5
    endloop
  endfacet
  facet normal 0 0 1
    outer loop
      vertex 1.625 2.81458 2.5
      vertex 0.0941849 1.49704 2.5
      vertex 0.188 1.48817 2.5
    endloop
  endfacet
  facet normal 0 0 1
    outer loop
      vertex 1.625 2.81458 2.5
      vertex 0 1.5 2.5
      vertex 0.0941849 1.49704 2.5
    endloop
  endfacet
  facet normal -0 0 1
    outer loop
      vertex -1.625 2.81458 2.5
      vertex 0 1.5 2.5
      vertex 1.625 2.81458 2.5
    endloop
  endfacet
  facet normal 0 0 1
    outer loop
      vertex 0 1.5 2.5
      vertex -1.625 2.81458 2.5
      vertex -0.0941849 1.49704 2.5
    endloop
  endfacet
  facet normal 0 0 1
    outer loop
      vertex -0.0941849 1.49704 2.5
      vertex -1.625 2.81458 2.5
      vertex -0.188 1.48817 2.5
    endloop
  endfacet
  facet normal 0 0 1
    outer loop
      vertex -0.188 1.48817 2.5
      vertex -1.625 2.81458 2.5
      vertex -0.281072 1.47343 2.5
    endloop
  endfacet
  facet normal 0 0 1
    outer loop
      vertex -0.281072 1.47343 2.5
      vertex -1.625 2.81458 2.5
      vertex -0.373034 1.45287 2.5
    endloop
  endfacet
  facet normal 0 0 1
    outer loop
      vertex -0.373034 1.45287 2.5
      vertex -1.625 2.81458 2.5
      vertex -0.463525 1.42658 2.5
    endloop
  endfacet
  facet normal 0 0 1
    outer loop
      vertex -0.463525 1.42658 2.5
      vertex -1.625 2.81458 2.5
      vertex -0.552186 1.39466 2.5
    endloop
  endfacet
  facet normal 0 0 1
    outer loop
      vertex -0.552186 1.39466 2.5
      vertex -1.625 2.81458 2.5
      vertex -0.638668 1.35724 2.5
    endloop
  endfacet
  facet normal 0 0 1
    outer loop
      vertex -0.638668 1.35724 2.5
      vertex -1.625 2.81458 2.5
      vertex -0.722631 1.31446 2.5
    endloop
  endfacet
  facet normal 0 0 1
    outer loop
      vertex -1.48817 0.188 2.5
      vertex -3.25 0 2.5
      vertex -1.49704 0.0941849 2.5
    endloop
  endfacet
  facet normal 0 0 1
    outer loop
      vertex -1.47343 0.281072 2.5
      vertex -3.25 0 2.5
      vertex -1.48817 0.188 2.5
    endloop
  endfacet
  facet normal 0 0 1
    outer loop
      vertex -1.45287 0.373034 2.5
      vertex -3.25 0 2.5
      vertex -1.47343 0.281072 2.5
    endloop
  endfacet
  facet normal 0 0 1
    outer loop
      vertex -1.42658 0.463525 2.5
      vertex -3.25 0 2.5
      vertex -1.45287 0.373034 2.5
    endloop
  endfacet
  facet normal 0 0 1
    outer loop
      vertex -1.39466 0.552186 2.5
      vertex -3.25 0 2.5
      vertex -1.42658 0.463525 2.5
    endloop
  endfacet
  facet normal 0 0 1
    outer loop
      vertex -1.35724 0.638668 2.5
      vertex -3.25 0 2.5
      vertex -1.39466 0.552186 2.5
    endloop
  endfacet
  facet normal 0 0 1
    outer loop
      vertex -1.31446 0.722631 2.5
      vertex -3.25 0 2.5
      vertex -1.35724 0.638668 2.5
    endloop
  endfacet
  facet normal 0 0 1
    outer loop
      vertex -3.25 0 2.5
      vertex -1.31446 0.722631 2.5
      vertex -1.625 2.81458 2.5
    endloop
  endfacet
  facet normal 0 0 1
    outer loop
      vertex -1.26649 0.80374 2.5
      vertex -1.625 2.81458 2.5
      vertex -1.31446 0.722631 2.5
    endloop
  endfacet
  facet normal 0 0 1
    outer loop
      vertex -1.21352 0.881678 2.5
      vertex -1.625 2.81458 2.5
      vertex -1.26649 0.80374 2.5
    endloop
  endfacet
  facet normal 0 0 1
    outer loop
      vertex -1.15577 0.956136 2.5
      vertex -1.625 2.81458 2.5
      vertex -1.21352 0.881678 2.5
    endloop
  endfacet
  facet normal 0 0 1
    outer loop
      vertex -1.09345 1.02682 2.5
      vertex -1.625 2.81458 2.5
      vertex -1.15577 0.956136 2.5
    endloop
  endfacet
  facet normal 0 0 1
    outer loop
      vertex -1.02682 1.09345 2.5
      vertex -1.625 2.81458 2.5
      vertex -1.09345 1.02682 2.5
    endloop
  endfacet
  facet normal 0 0 1
    outer loop
      vertex -0.956136 1.15577 2.5
      vertex -1.625 2.81458 2.5
      vertex -1.02682 1.09345 2.5
    endloop
  endfacet
  facet normal 0 0 1
    outer loop
      vertex -0.881678 1.21352 2.5
      vertex -1.625 2.81458 2.5
      vertex -0.956136 1.15577 2.5
    endloop
  endfacet
  facet normal 0 0 1
    outer loop
      vertex -0.80374 1.26649 2.5
      vertex -1.625 2.81458 2.5
      vertex -0.881678 1.21352 2.5
    endloop
  endfacet
  facet normal 0 0 1
    outer loop
      vertex -0.722631 1.31446 2.5
      vertex -1.625 2.81458 2.5
      vertex -0.80374 1.26649 2.5
    endloop
  endfacet
  facet normal 0 0 1
    outer loop
      vertex 1.48817 -0.188 2.5
      vertex 3.25 0 2.5
      vertex 1.49704 -0.0941849 2.5
    endloop
  endfacet
  facet normal 0 0 1
    outer loop
      vertex 1.47343 -0.281072 2.5
      vertex 3.25 0 2.5
      vertex 1.48817 -0.188 2.5
    endloop
  endfacet
  facet normal 0 0 1
    outer loop
      vertex 1.45287 -0.373034 2.5
      vertex 3.25 0 2.5
      vertex 1.47343 -0.281072 2.5
    endloop
  endfacet
  facet normal 0 0 1
    outer loop
      vertex 1.42658 -0.463525 2.5
      vertex 3.25 0 2.5
      vertex 1.45287 -0.373034 2.5
    endloop
  endfacet
  facet normal 0 0 1
    outer loop
      vertex 1.39466 -0.552186 2.5
      vertex 3.25 0 2.5
      vertex 1.42658 -0.463525 2.5
    endloop
  endfacet
  facet normal 0 0 1
    outer loop
      vertex 1.35724 -0.638668 2.5
      vertex 3.25 0 2.5
      vertex 1.39466 -0.552186 2.5
    endloop
  endfacet
  facet normal 0 0 1
    outer loop
      vertex 1.31446 -0.722631 2.5
      vertex 3.25 0 2.5
      vertex 1.35724 -0.638668 2.5
    endloop
  endfacet
  facet normal 0 0 1
    outer loop
      vertex 3.25 0 2.5
      vertex 1.31446 -0.722631 2.5
      vertex 1.625 -2.81458 2.5
    endloop
  endfacet
  facet normal -0 0 1
    outer loop
      vertex 1.26649 -0.80374 2.5
      vertex 1.625 -2.81458 2.5
      vertex 1.31446 -0.722631 2.5
    endloop
  endfacet
  facet normal -0 0 1
    outer loop
      vertex 1.21352 -0.881678 2.5
      vertex 1.625 -2.81458 2.5
      vertex 1.26649 -0.80374 2.5
    endloop
  endfacet
  facet normal -0 0 1
    outer loop
      vertex 1.15577 -0.956136 2.5
      vertex 1.625 -2.81458 2.5
      vertex 1.21352 -0.881678 2.5
    endloop
  endfacet
  facet normal -0 0 1
    outer loop
      vertex 1.09345 -1.02682 2.5
      vertex 1.625 -2.81458 2.5
      vertex 1.15577 -0.956136 2.5
    endloop
  endfacet
  facet normal -0 0 1
    outer loop
      vertex 1.02682 -1.09345 2.5
      vertex 1.625 -2.81458 2.5
      vertex 1.09345 -1.02682 2.5
    endloop
  endfacet
  facet normal -0 0 1
    outer loop
      vertex 0.956136 -1.15577 2.5
      vertex 1.625 -2.81458 2.5
      vertex 1.02682 -1.09345 2.5
    endloop
  endfacet
  facet normal -0 0 1
    outer loop
      vertex 0.881678 -1.21352 2.5
      vertex 1.625 -2.81458 2.5
      vertex 0.956136 -1.15577 2.5
    endloop
  endfacet
  facet normal -0 0 1
    outer loop
      vertex 0.80374 -1.26649 2.5
      vertex 1.625 -2.81458 2.5
      vertex 0.881678 -1.21352 2.5
    endloop
  endfacet
  facet normal -0 0 1
    outer loop
      vertex 0.722631 -1.31446 2.5
      vertex 1.625 -2.81458 2.5
      vertex 0.80374 -1.26649 2.5
    endloop
  endfacet
  facet normal -0 0 1
    outer loop
      vertex 0.638668 -1.35724 2.5
      vertex 1.625 -2.81458 2.5
      vertex 0.722631 -1.31446 2.5
    endloop
  endfacet
  facet normal -0 0 1
    outer loop
      vertex 0.552186 -1.39466 2.5
      vertex 1.625 -2.81458 2.5
      vertex 0.638668 -1.35724 2.5
    endloop
  endfacet
  facet normal -0 0 1
    outer loop
      vertex 0.463525 -1.42658 2.5
      vertex 1.625 -2.81458 2.5
      vertex 0.552186 -1.39466 2.5
    endloop
  endfacet
  facet normal -0 0 1
    outer loop
      vertex 0.373034 -1.45287 2.5
      vertex 1.625 -2.81458 2.5
      vertex 0.463525 -1.42658 2.5
    endloop
  endfacet
  facet normal -0 0 1
    outer loop
      vertex 0.281072 -1.47343 2.5
      vertex 1.625 -2.81458 2.5
      vertex 0.373034 -1.45287 2.5
    endloop
  endfacet
  facet normal -0 0 1
    outer loop
      vertex 0.188 -1.48817 2.5
      vertex 1.625 -2.81458 2.5
      vertex 0.281072 -1.47343 2.5
    endloop
  endfacet
  facet normal -0 0 1
    outer loop
      vertex 0.0941849 -1.49704 2.5
      vertex 1.625 -2.81458 2.5
      vertex 0.188 -1.48817 2.5
    endloop
  endfacet
  facet normal -0 0 1
    outer loop
      vertex 0 -1.5 2.5
      vertex 1.625 -2.81458 2.5
      vertex 0.0941849 -1.49704 2.5
    endloop
  endfacet
  facet normal 0 0 1
    outer loop
      vertex -1.625 -2.81458 2.5
      vertex 0 -1.5 2.5
      vertex -0.0941849 -1.49704 2.5
    endloop
  endfacet
  facet normal 0 0 1
    outer loop
      vertex -1.625 -2.81458 2.5
      vertex -0.0941849 -1.49704 2.5
      vertex -0.188 -1.48817 2.5
    endloop
  endfacet
  facet normal 0 0 1
    outer loop
      vertex -1.625 -2.81458 2.5
      vertex -0.188 -1.48817 2.5
      vertex -0.281072 -1.47343 2.5
    endloop
  endfacet
  facet normal 0 0 1
    outer loop
      vertex -1.625 -2.81458 2.5
      vertex -0.281072 -1.47343 2.5
      vertex -0.373034 -1.45287 2.5
    endloop
  endfacet
  facet normal 0 0 1
    outer loop
      vertex -1.625 -2.81458 2.5
      vertex -0.373034 -1.45287 2.5
      vertex -0.463525 -1.42658 2.5
    endloop
  endfacet
  facet normal 0 0 1
    outer loop
      vertex -1.625 -2.81458 2.5
      vertex -0.463525 -1.42658 2.5
      vertex -0.552186 -1.39466 2.5
    endloop
  endfacet
  facet normal 0 0 1
    outer loop
      vertex -1.625 -2.81458 2.5
      vertex -0.552186 -1.39466 2.5
      vertex -0.638668 -1.35724 2.5
    endloop
  endfacet
  facet normal 0 0 1
    outer loop
      vertex -1.625 -2.81458 2.5
      vertex -0.638668 -1.35724 2.5
      vertex -0.722631 -1.31446 2.5
    endloop
  endfacet
  facet normal 0 0 1
    outer loop
      vertex -1.625 -2.81458 2.5
      vertex -0.722631 -1.31446 2.5
      vertex -0.80374 -1.26649 2.5
    endloop
  endfacet
  facet normal 0 0 1
    outer loop
      vertex -1.49704 0.0941849 2.5
      vertex -3.25 0 2.5
      vertex -1.5 0 2.5
    endloop
  endfacet
  facet normal 0 0 1
    outer loop
      vertex 0 -1.5 2.5
      vertex -1.625 -2.81458 2.5
      vertex 1.625 -2.81458 2.5
    endloop
  endfacet
  facet normal 0 0 1
    outer loop
      vertex -0.881678 -1.21352 2.5
      vertex -1.625 -2.81458 2.5
      vertex -0.80374 -1.26649 2.5
    endloop
  endfacet
  facet normal 0 0 1
    outer loop
      vertex -0.956136 -1.15577 2.5
      vertex -1.625 -2.81458 2.5
      vertex -0.881678 -1.21352 2.5
    endloop
  endfacet
  facet normal 0 0 1
    outer loop
      vertex -1.02682 -1.09345 2.5
      vertex -1.625 -2.81458 2.5
      vertex -0.956136 -1.15577 2.5
    endloop
  endfacet
  facet normal 0 0 1
    outer loop
      vertex -1.09345 -1.02682 2.5
      vertex -1.625 -2.81458 2.5
      vertex -1.02682 -1.09345 2.5
    endloop
  endfacet
  facet normal 0 0 1
    outer loop
      vertex -1.15577 -0.956136 2.5
      vertex -1.625 -2.81458 2.5
      vertex -1.09345 -1.02682 2.5
    endloop
  endfacet
  facet normal 0 0 1
    outer loop
      vertex -1.21352 -0.881678 2.5
      vertex -1.625 -2.81458 2.5
      vertex -1.15577 -0.956136 2.5
    endloop
  endfacet
  facet normal 0 0 1
    outer loop
      vertex -1.26649 -0.80374 2.5
      vertex -1.625 -2.81458 2.5
      vertex -1.21352 -0.881678 2.5
    endloop
  endfacet
  facet normal 0 0 1
    outer loop
      vertex -1.31446 -0.722631 2.5
      vertex -1.625 -2.81458 2.5
      vertex -1.26649 -0.80374 2.5
    endloop
  endfacet
  facet normal 0 0 1
    outer loop
      vertex -3.25 0 2.5
      vertex -1.31446 -0.722631 2.5
      vertex -1.35724 -0.638668 2.5
    endloop
  endfacet
  facet normal 0 0 1
    outer loop
      vertex -3.25 0 2.5
      vertex -1.35724 -0.638668 2.5
      vertex -1.39466 -0.552186 2.5
    endloop
  endfacet
  facet normal 0 0 1
    outer loop
      vertex -3.25 0 2.5
      vertex -1.39466 -0.552186 2.5
      vertex -1.42658 -0.463525 2.5
    endloop
  endfacet
  facet normal 0 0 1
    outer loop
      vertex -3.25 0 2.5
      vertex -1.42658 -0.463525 2.5
      vertex -1.45287 -0.373034 2.5
    endloop
  endfacet
  facet normal 0 0 1
    outer loop
      vertex -3.25 0 2.5
      vertex -1.45287 -0.373034 2.5
      vertex -1.47343 -0.281072 2.5
    endloop
  endfacet
  facet normal 0 0 1
    outer loop
      vertex -3.25 0 2.5
      vertex -1.47343 -0.281072 2.5
      vertex -1.48817 -0.188 2.5
    endloop
  endfacet
  facet normal 0 0 1
    outer loop
      vertex -3.25 0 2.5
      vertex -1.48817 -0.188 2.5
      vertex -1.49704 -0.0941849 2.5
    endloop
  endfacet
  facet normal 0 0 1
    outer loop
      vertex -1.5 0 2.5
      vertex -3.25 0 2.5
      vertex -1.49704 -0.0941849 2.5
    endloop
  endfacet
  facet normal 0 0 1
    outer loop
      vertex -1.31446 -0.722631 2.5
      vertex -3.25 0 2.5
      vertex -1.625 -2.81458 2.5
    endloop
  endfacet
  facet normal 0 1 -0
    outer loop
      vertex 1.625 -2.81458 2.5
      vertex -1.625 -2.81458 5
      vertex 1.625 -2.81458 5
    endloop
  endfacet
  facet normal 0 1 0
    outer loop
      vertex -1.625 -2.81458 5
      vertex 1.625 -2.81458 2.5
      vertex -1.625 -2.81458 2.5
    endloop
  endfacet
  facet normal 0.866025 0.5 0
    outer loop
      vertex -1.625 -2.81458 5
      vertex -3.25 0 2.5
      vertex -3.25 0 5
    endloop
  endfacet
  facet normal 0.866025 0.5 0
    outer loop
      vertex -3.25 0 2.5
      vertex -1.625 -2.81458 5
      vertex -1.625 -2.81458 2.5
    endloop
  endfacet
  facet normal -1 0 0
    outer loop
      vertex -5 -5 0
      vertex -5 5 5
      vertex -5 5 0
    endloop
  endfacet
  facet normal -1 -0 0
    outer loop
      vertex -5 5 5
      vertex -5 -5 0
      vertex -5 -5 5
    endloop
  endfacet
  facet normal 0 0 1
    outer loop
      vertex 5 5 5
      vertex 3.25 0 5
      vertex 5 -5 5
    endloop
  endfacet
  facet normal 0 0 1
    outer loop
      vertex 5 5 5
      vertex 1.625 2.81458 5
      vertex 3.25 0 5
    endloop
  endfacet
  facet normal 0 0 1
    outer loop
      vertex 5 5 5
      vertex -1.625 2.81458 5
      vertex 1.625 2.81458 5
    endloop
  endfacet
  facet normal 0 0 1
    outer loop
      vertex -1.625 2.81458 5
      vertex -5 5 5
      vertex -3.25 0 5
    endloop
  endfacet
  facet normal -0 0 1
    outer loop
      vertex -5 5 5
      vertex -1.625 2.81458 5
      vertex 5 5 5
    endloop
  endfacet
  facet normal -0 0 1
    outer loop
      vertex 1.625 -2.81458 5
      vertex 5 -5 5
      vertex 3.25 0 5
    endloop
  endfacet
  facet normal -0 0 1
    outer loop
      vertex -1.625 -2.81458 5
      vertex 5 -5 5
      vertex 1.625 -2.81458 5
    endloop
  endfacet
  facet normal 0 0 1
    outer loop
      vertex -1.625 -2.81458 5
      vertex -5 -5 5
      vertex 5 -5 5
    endloop
  endfacet
  facet normal 0 0 1
    outer loop
      vertex -3.25 0 5
      vertex -5 -5 5
      vertex -1.625 -2.81458 5
    endloop
  endfacet
  facet normal 0 0 1
    outer loop
      vertex -5 -5 5
      vertex -3.25 0 5
      vertex -5 5 5
    endloop
  endfacet
  facet normal 1 -0 0
    outer loop
      vertex 5 -5 5
      vertex 5 5 0
      vertex 5 5 5
    endloop
  endfacet
  facet normal 1 0 0
    outer loop
      vertex 5 5 0
      vertex 5 -5 5
      vertex 5 -5 0
    endloop
  endfacet
  facet normal 0 1 -0
    outer loop
      vertex 5 5 0
      vertex -5 5 5
      vertex 5 5 5
    endloop
  endfacet
  facet normal 0 1 0
    outer loop
      vertex -5 5 5
      vertex 5 5 0
      vertex -5 5 0
    endloop
  endfacet
  facet normal 0 0 -1
    outer loop
      vertex 5 -5 0
      vertex 1.5 0 0
      vertex 5 5 0
    endloop
  endfacet
  facet normal 0 0 -1
    outer loop
      vertex 5 -5 0
      vertex 1.49704 -0.0941849 0
      vertex 1.5 0 0
    endloop
  endfacet
  facet normal 0 0 -1
    outer loop
      vertex 5 -5 0
      vertex 1.48817 -0.188 0
      vertex 1.49704 -0.0941849 0
    endloop
  endfacet
  facet normal 0 0 -1
    outer loop
      vertex 5 -5 0
      vertex 1.47343 -0.281072 0
      vertex 1.48817 -0.188 0
    endloop
  endfacet
  facet normal 0 0 -1
    outer loop
      vertex 5 -5 0
      vertex 1.45287 -0.373034 0
      vertex 1.47343 -0.281072 0
    endloop
  endfacet
  facet normal 0 0 -1
    outer loop
      vertex 5 -5 0
      vertex 1.42658 -0.463525 0
      vertex 1.45287 -0.373034 0
    endloop
  endfacet
  facet normal 0 0 -1
    outer loop
      vertex 5 -5 0
      vertex 1.39466 -0.552186 0
      vertex 1.42658 -0.463525 0
    endloop
  endfacet
  facet normal 0 0 -1
    outer loop
      vertex 5 -5 0
      vertex 1.35724 -0.638668 0
      vertex 1.39466 -0.552186 0
    endloop
  endfacet
  facet normal 0 0 -1
    outer loop
      vertex 5 -5 0
      vertex 1.31446 -0.722631 0
      vertex 1.35724 -0.638668 0
    endloop
  endfacet
  facet normal 0 0 -1
    outer loop
      vertex 5 -5 0
      vertex 1.26649 -0.80374 0
      vertex 1.31446 -0.722631 0
    endloop
  endfacet
  facet normal 0 0 -1
    outer loop
      vertex 5 -5 0
      vertex 1.21352 -0.881678 0
      vertex 1.26649 -0.80374 0
    endloop
  endfacet
  facet normal 0 0 -1
    outer loop
      vertex 5 -5 0
      vertex 1.15577 -0.956136 0
      vertex 1.21352 -0.881678 0
    endloop
  endfacet
  facet normal 0 0 -1
    outer loop
      vertex 5 -5 0
      vertex 1.09345 -1.02682 0
      vertex 1.15577 -0.956136 0
    endloop
  endfacet
  facet normal 0 0 -1
    outer loop
      vertex 5 -5 0
      vertex 1.02682 -1.09345 0
      vertex 1.09345 -1.02682 0
    endloop
  endfacet
  facet normal 0 0 -1
    outer loop
      vertex 5 -5 0
      vertex 0.956136 -1.15577 0
      vertex 1.02682 -1.09345 0
    endloop
  endfacet
  facet normal 0 0 -1
    outer loop
      vertex 5 -5 0
      vertex 0.881678 -1.21352 0
      vertex 0.956136 -1.15577 0
    endloop
  endfacet
  facet normal 0 0 -1
    outer loop
      vertex 5 -5 0
      vertex 0.80374 -1.26649 0
      vertex 0.881678 -1.21352 0
    endloop
  endfacet
  facet normal 0 0 -1
    outer loop
      vertex 5 -5 0
      vertex 0.722631 -1.31446 0
      vertex 0.80374 -1.26649 0
    endloop
  endfacet
  facet normal 0 0 -1
    outer loop
      vertex 5 -5 0
      vertex 0.638668 -1.35724 0
      vertex 0.722631 -1.31446 0
    endloop
  endfacet
  facet normal 0 0 -1
    outer loop
      vertex 5 -5 0
      vertex 0.552186 -1.39466 0
      vertex 0.638668 -1.35724 0
    endloop
  endfacet
  facet normal 0 0 -1
    outer loop
      vertex 5 -5 0
      vertex 0.463525 -1.42658 0
      vertex 0.552186 -1.39466 0
    endloop
  endfacet
  facet normal 0 0 -1
    outer loop
      vertex 5 -5 0
      vertex 0.373034 -1.45287 0
      vertex 0.463525 -1.42658 0
    endloop
  endfacet
  facet normal 0 0 -1
    outer loop
      vertex 5 -5 0
      vertex 0.281072 -1.47343 0
      vertex 0.373034 -1.45287 0
    endloop
  endfacet
  facet normal 0 0 -1
    outer loop
      vertex 5 -5 0
      vertex 0.188 -1.48817 0
      vertex 0.281072 -1.47343 0
    endloop
  endfacet
  facet normal 0 0 -1
    outer loop
      vertex 5 -5 0
      vertex 0.0941849 -1.49704 0
      vertex 0.188 -1.48817 0
    endloop
  endfacet
  facet normal 0 0 -1
    outer loop
      vertex 5 -5 0
      vertex 0 -1.5 0
      vertex 0.0941849 -1.49704 0
    endloop
  endfacet
  facet normal 0 0 -1
    outer loop
      vertex -5 -5 0
      vertex 0 -1.5 0
      vertex 5 -5 0
    endloop
  endfacet
  facet normal -0 0 -1
    outer loop
      vertex 0 -1.5 0
      vertex -5 -5 0
      vertex -0.0941849 -1.49704 0
    endloop
  endfacet
  facet normal -0 0 -1
    outer loop
      vertex -0.0941849 -1.49704 0
      vertex -5 -5 0
      vertex -0.188 -1.48817 0
    endloop
  endfacet
  facet normal -0 0 -1
    outer loop
      vertex -0.188 -1.48817 0
      vertex -5 -5 0
      vertex -0.281072 -1.47343 0
    endloop
  endfacet
  facet normal -0 0 -1
    outer loop
      vertex -0.281072 -1.47343 0
      vertex -5 -5 0
      vertex -0.373034 -1.45287 0
    endloop
  endfacet
  facet normal -0 0 -1
    outer loop
      vertex -0.373034 -1.45287 0
      vertex -5 -5 0
      vertex -0.463525 -1.42658 0
    endloop
  endfacet
  facet normal -0 0 -1
    outer loop
      vertex -0.463525 -1.42658 0
      vertex -5 -5 0
      vertex -0.552186 -1.39466 0
    endloop
  endfacet
  facet normal -0 0 -1
    outer loop
      vertex -0.552186 -1.39466 0
      vertex -5 -5 0
      vertex -0.638668 -1.35724 0
    endloop
  endfacet
  facet normal -0 0 -1
    outer loop
      vertex -0.638668 -1.35724 0
      vertex -5 -5 0
      vertex -0.722631 -1.31446 0
    endloop
  endfacet
  facet normal -0 0 -1
    outer loop
      vertex -1.49704 -0.0941849 0
      vertex -5 -5 0
      vertex -1.5 0 0
    endloop
  endfacet
  facet normal -0 0 -1
    outer loop
      vertex -1.48817 -0.188 0
      vertex -5 -5 0
      vertex -1.49704 -0.0941849 0
    endloop
  endfacet
  facet normal -0 0 -1
    outer loop
      vertex -1.47343 -0.281072 0
      vertex -5 -5 0
      vertex -1.48817 -0.188 0
    endloop
  endfacet
  facet normal -0 0 -1
    outer loop
      vertex -1.45287 -0.373034 0
      vertex -5 -5 0
      vertex -1.47343 -0.281072 0
    endloop
  endfacet
  facet normal -0 0 -1
    outer loop
      vertex -1.42658 -0.463525 0
      vertex -5 -5 0
      vertex -1.45287 -0.373034 0
    endloop
  endfacet
  facet normal -0 0 -1
    outer loop
      vertex -1.39466 -0.552186 0
      vertex -5 -5 0
      vertex -1.42658 -0.463525 0
    endloop
  endfacet
  facet normal -0 0 -1
    outer loop
      vertex -1.35724 -0.638668 0
      vertex -5 -5 0
      vertex -1.39466 -0.552186 0
    endloop
  endfacet
  facet normal -0 0 -1
    outer loop
      vertex -1.31446 -0.722631 0
      vertex -5 -5 0
      vertex -1.35724 -0.638668 0
    endloop
  endfacet
  facet normal -0 0 -1
    outer loop
      vertex -1.26649 -0.80374 0
      vertex -5 -5 0
      vertex -1.31446 -0.722631 0
    endloop
  endfacet
  facet normal -0 0 -1
    outer loop
      vertex -1.21352 -0.881678 0
      vertex -5 -5 0
      vertex -1.26649 -0.80374 0
    endloop
  endfacet
  facet normal -0 0 -1
    outer loop
      vertex -1.15577 -0.956136 0
      vertex -5 -5 0
      vertex -1.21352 -0.881678 0
    endloop
  endfacet
  facet normal -0 0 -1
    outer loop
      vertex -1.09345 -1.02682 0
      vertex -5 -5 0
      vertex -1.15577 -0.956136 0
    endloop
  endfacet
  facet normal -0 0 -1
    outer loop
      vertex -1.02682 -1.09345 0
      vertex -5 -5 0
      vertex -1.09345 -1.02682 0
    endloop
  endfacet
  facet normal -0 0 -1
    outer loop
      vertex -0.956136 -1.15577 0
      vertex -5 -5 0
      vertex -1.02682 -1.09345 0
    endloop
  endfacet
  facet normal -0 0 -1
    outer loop
      vertex -0.881678 -1.21352 0
      vertex -5 -5 0
      vertex -0.956136 -1.15577 0
    endloop
  endfacet
  facet normal -0 0 -1
    outer loop
      vertex -0.80374 -1.26649 0
      vertex -5 -5 0
      vertex -0.881678 -1.21352 0
    endloop
  endfacet
  facet normal -0 0 -1
    outer loop
      vertex -0.722631 -1.31446 0
      vertex -5 -5 0
      vertex -0.80374 -1.26649 0
    endloop
  endfacet
  facet normal 0 0 -1
    outer loop
      vertex 1.49704 0.0941849 0
      vertex 5 5 0
      vertex 1.5 0 0
    endloop
  endfacet
  facet normal 0 0 -1
    outer loop
      vertex 1.48817 0.188 0
      vertex 5 5 0
      vertex 1.49704 0.0941849 0
    endloop
  endfacet
  facet normal 0 0 -1
    outer loop
      vertex 1.47343 0.281072 0
      vertex 5 5 0
      vertex 1.48817 0.188 0
    endloop
  endfacet
  facet normal 0 0 -1
    outer loop
      vertex 1.45287 0.373034 0
      vertex 5 5 0
      vertex 1.47343 0.281072 0
    endloop
  endfacet
  facet normal 0 0 -1
    outer loop
      vertex 1.42658 0.463525 0
      vertex 5 5 0
      vertex 1.45287 0.373034 0
    endloop
  endfacet
  facet normal 0 0 -1
    outer loop
      vertex 1.39466 0.552186 0
      vertex 5 5 0
      vertex 1.42658 0.463525 0
    endloop
  endfacet
  facet normal 0 0 -1
    outer loop
      vertex 1.35724 0.638668 0
      vertex 5 5 0
      vertex 1.39466 0.552186 0
    endloop
  endfacet
  facet normal 0 0 -1
    outer loop
      vertex 1.31446 0.722631 0
      vertex 5 5 0
      vertex 1.35724 0.638668 0
    endloop
  endfacet
  facet normal 0 0 -1
    outer loop
      vertex 1.26649 0.80374 0
      vertex 5 5 0
      vertex 1.31446 0.722631 0
    endloop
  endfacet
  facet normal 0 0 -1
    outer loop
      vertex 1.21352 0.881678 0
      vertex 5 5 0
      vertex 1.26649 0.80374 0
    endloop
  endfacet
  facet normal 0 0 -1
    outer loop
      vertex 1.15577 0.956136 0
      vertex 5 5 0
      vertex 1.21352 0.881678 0
    endloop
  endfacet
  facet normal 0 0 -1
    outer loop
      vertex 1.09345 1.02682 0
      vertex 5 5 0
      vertex 1.15577 0.956136 0
    endloop
  endfacet
  facet normal 0 0 -1
    outer loop
      vertex 1.02682 1.09345 0
      vertex 5 5 0
      vertex 1.09345 1.02682 0
    endloop
  endfacet
  facet normal 0 0 -1
    outer loop
      vertex 0.956136 1.15577 0
      vertex 5 5 0
      vertex 1.02682 1.09345 0
    endloop
  endfacet
  facet normal 0 0 -1
    outer loop
      vertex 0.881678 1.21352 0
      vertex 5 5 0
      vertex 0.956136 1.15577 0
    endloop
  endfacet
  facet normal 0 0 -1
    outer loop
      vertex 0.80374 1.26649 0
      vertex 5 5 0
      vertex 0.881678 1.21352 0
    endloop
  endfacet
  facet normal 0 0 -1
    outer loop
      vertex 0.722631 1.31446 0
      vertex 5 5 0
      vertex 0.80374 1.26649 0
    endloop
  endfacet
  facet normal 0 0 -1
    outer loop
      vertex 0.638668 1.35724 0
      vertex 5 5 0
      vertex 0.722631 1.31446 0
    endloop
  endfacet
  facet normal 0 0 -1
    outer loop
      vertex 0.552186 1.39466 0
      vertex 5 5 0
      vertex 0.638668 1.35724 0
    endloop
  endfacet
  facet normal 0 0 -1
    outer loop
      vertex 0.463525 1.42658 0
      vertex 5 5 0
      vertex 0.552186 1.39466 0
    endloop
  endfacet
  facet normal 0 0 -1
    outer loop
      vertex 0.373034 1.45287 0
      vertex 5 5 0
      vertex 0.463525 1.42658 0
    endloop
  endfacet
  facet normal 0 0 -1
    outer loop
      vertex 0.281072 1.47343 0
      vertex 5 5 0
      vertex 0.373034 1.45287 0
    endloop
  endfacet
  facet normal 0 0 -1
    outer loop
      vertex 0.188 1.48817 0
      vertex 5 5 0
      vertex 0.281072 1.47343 0
    endloop
  endfacet
  facet normal 0 0 -1
    outer loop
      vertex 0.0941849 1.49704 0
      vertex 5 5 0
      vertex 0.188 1.48817 0
    endloop
  endfacet
  facet normal 0 0 -1
    outer loop
      vertex 0 1.5 0
      vertex 5 5 0
      vertex 0.0941849 1.49704 0
    endloop
  endfacet
  facet normal 0 0 -1
    outer loop
      vertex -5 5 0
      vertex 0 1.5 0
      vertex -0.0941849 1.49704 0
    endloop
  endfacet
  facet normal 0 0 -1
    outer loop
      vertex -5 5 0
      vertex -0.0941849 1.49704 0
      vertex -0.188 1.48817 0
    endloop
  endfacet
  facet normal 0 0 -1
    outer loop
      vertex -5 5 0
      vertex -0.188 1.48817 0
      vertex -0.281072 1.47343 0
    endloop
  endfacet
  facet normal 0 0 -1
    outer loop
      vertex -5 5 0
      vertex -0.281072 1.47343 0
      vertex -0.373034 1.45287 0
    endloop
  endfacet
  facet normal 0 0 -1
    outer loop
      vertex -5 5 0
      vertex -0.373034 1.45287 0
      vertex -0.463525 1.42658 0
    endloop
  endfacet
  facet normal 0 0 -1
    outer loop
      vertex -5 5 0
      vertex -0.463525 1.42658 0
      vertex -0.552186 1.39466 0
    endloop
  endfacet
  facet normal 0 0 -1
    outer loop
      vertex -5 5 0
      vertex -0.552186 1.39466 0
      vertex -0.638668 1.35724 0
    endloop
  endfacet
  facet normal 0 0 -1
    outer loop
      vertex -5 5 0
      vertex -0.638668 1.35724 0
      vertex -0.722631 1.31446 0
    endloop
  endfacet
  facet normal 0 0 -1
    outer loop
      vertex -5 5 0
      vertex -0.722631 1.31446 0
      vertex -0.80374 1.26649 0
    endloop
  endfacet
  facet normal 0 0 -1
    outer loop
      vertex -5 5 0
      vertex -1.5 0 0
      vertex -5 -5 0
    endloop
  endfacet
  facet normal 0 0 -1
    outer loop
      vertex -1.5 0 0
      vertex -5 5 0
      vertex -1.49704 0.0941849 0
    endloop
  endfacet
  facet normal 0 0 -1
    outer loop
      vertex -1.49704 0.0941849 0
      vertex -5 5 0
      vertex -1.48817 0.188 0
    endloop
  endfacet
  facet normal 0 0 -1
    outer loop
      vertex -1.48817 0.188 0
      vertex -5 5 0
      vertex -1.47343 0.281072 0
    endloop
  endfacet
  facet normal 0 0 -1
    outer loop
      vertex -1.47343 0.281072 0
      vertex -5 5 0
      vertex -1.45287 0.373034 0
    endloop
  endfacet
  facet normal 0 0 -1
    outer loop
      vertex -1.45287 0.373034 0
      vertex -5 5 0
      vertex -1.42658 0.463525 0
    endloop
  endfacet
  facet normal 0 0 -1
    outer loop
      vertex -1.42658 0.463525 0
      vertex -5 5 0
      vertex -1.39466 0.552186 0
    endloop
  endfacet
  facet normal 0 0 -1
    outer loop
      vertex -1.39466 0.552186 0
      vertex -5 5 0
      vertex -1.35724 0.638668 0
    endloop
  endfacet
  facet normal 0 0 -1
    outer loop
      vertex -1.35724 0.638668 0
      vertex -5 5 0
      vertex -1.31446 0.722631 0
    endloop
  endfacet
  facet normal 0 0 -1
    outer loop
      vertex 0 1.5 0
      vertex -5 5 0
      vertex 5 5 0
    endloop
  endfacet
  facet normal 0 0 -1
    outer loop
      vertex -0.881678 1.21352 0
      vertex -5 5 0
      vertex -0.80374 1.26649 0
    endloop
  endfacet
  facet normal 0 0 -1
    outer loop
      vertex -0.956136 1.15577 0
      vertex -5 5 0
      vertex -0.881678 1.21352 0
    endloop
  endfacet
  facet normal 0 0 -1
    outer loop
      vertex -1.02682 1.09345 0
      vertex -5 5 0
      vertex -0.956136 1.15577 0
    endloop
  endfacet
  facet normal 0 0 -1
    outer loop
      vertex -1.09345 1.02682 0
      vertex -5 5 0
      vertex -1.02682 1.09345 0
    endloop
  endfacet
  facet normal 0 0 -1
    outer loop
      vertex -1.15577 0.956136 0
      vertex -5 5 0
      vertex -1.09345 1.02682 0
    endloop
  endfacet
  facet normal 0 0 -1
    outer loop
      vertex -1.21352 0.881678 0
      vertex -5 5 0
      vertex -1.15577 0.956136 0
    endloop
  endfacet
  facet normal 0 0 -1
    outer loop
      vertex -1.26649 0.80374 0
      vertex -5 5 0
      vertex -1.21352 0.881678 0
    endloop
  endfacet
  facet normal 0 0 -1
    outer loop
      vertex -1.31446 0.722631 0
      vertex -5 5 0
      vertex -1.26649 0.80374 0
    endloop
  endfacet
  facet normal 0 -1 0
    outer loop
      vertex -5 -5 0
      vertex 5 -5 5
      vertex -5 -5 5
    endloop
  endfacet
  facet normal 0 -1 -0
    outer loop
      vertex 5 -5 5
      vertex -5 -5 0
      vertex 5 -5 0
    endloop
  endfacet
endsolid OpenSCAD_Model
